<?xml version="1.0" standalone="no"?>
<!DOCTYPE svg PUBLIC "-//W3C//DTD SVG 1.1//EN" "http://www.w3.org/Graphics/SVG/1.1/DTD/svg11.dtd" >
<svg xmlns="http://www.w3.org/2000/svg" xmlns:xlink="http://www.w3.org/1999/xlink" version="1.1">
<metadata>
Created by FontForge 20190801 at Sun Mar 30 01:56:44 2003
 By Jimmy Wärting
(c)2003 Jakob Fischer at www.pizzadude.dk, all rights reserved - DO NOT DISTRIBUTE WITHOUT AUTHOR'S PERMISSION!
</metadata>
<defs>
<font id="PizzaBot" horiz-adv-x="689" >
  <font-face 
    font-family="PizzaBot"
    font-weight="400"
    font-stretch="normal"
    units-per-em="1024"
    panose-1="2 11 6 3 5 3 2 2 2 4"
    ascent="819"
    descent="-205"
    x-height="460"
    cap-height="777"
    bbox="-72.3333 -249.333 1218.06 810.647"
    underline-thickness="0"
    underline-position="0"
    unicode-range="U+0020-2026"
  />
<missing-glyph horiz-adv-x="512" 
d="M64 0v790h384v-790h-384zM128 64h256v662h-256v-662z" />
    <glyph glyph-name=".notdef" horiz-adv-x="512" 
d="M64 0v790h384v-790h-384zM128 64h256v662h-256v-662z" />
    <glyph glyph-name=".null" horiz-adv-x="0" 
 />
    <glyph glyph-name="nonmarkingreturn" horiz-adv-x="339" 
 />
    <glyph glyph-name="space" unicode=" " horiz-adv-x="339" 
 />
    <glyph glyph-name="exclam" unicode="!" horiz-adv-x="498" 
d="M120 169q91 4 150 4q52 -1 150 -4q17 -1 17 -12q-6 -23 -4 -72q0 -49 4 -68q0 -11 -17 -12q-151 -5 -300 0q-16 1 -17 12q-3 26 0.5 69.5t-0.5 70.5q-2 11 17 12zM109 247q-17 1 -18 18q-12 137 -11 200q1 62 11 175q1 17 18 18q160 8 325 0q20 -1 18 -18
q-19 -143 -19 -192q0 -63 19 -183q0 -17 -18 -18q-165 -11 -325 0z" />
    <glyph glyph-name="quotedbl" unicode="&#x22;" horiz-adv-x="819" 
d="M478 781q75 3 150 3t150 -3q18 -3 17 -13q3 -54 2 -83q-2 -51 -34 -119q-18 -38 -47 -104q-7 -16 -19 -11q-39 11 -76 35q-8 4 -8 11q0 5 3 11l26 52q13 26 26 53h-95q-33 0 -95 3q-15 1 -17 12q-3 23 1 69q3 45 -1 71q-2 10 17 13zM63 781q140 7 300 0q18 -3 17 -13
q3 -54 2 -83q-2 -51 -34 -119q-18 -38 -47 -104q-7 -16 -19 -11q-39 11 -76 35q-14 4 -5 22q18 35 52 105h-95q-33 0 -95 3q-15 1 -17 12q-3 23 1 69q3 44 -1 71q-2 12 17 13z" />
    <glyph glyph-name="numbersign" unicode="#" horiz-adv-x="873" 
d="M689 603q16 -1 18 -18q6 -60 10 -147l40 2l41 3q20 1 25 -11q11 -39 9 -79q-5 -14 -23 -14q-10 0 -45 -2q-28 -1 -45 -1v-72q-7 0 67 4q20 1 25 -11q11 -37 9 -79q0 -13 -27 -15h-36q-21 -1 -41 -1q-3 -76 -9 -138q-2 -17 -18 -18q-159 -8 -324 0q-22 1 -18 18
q7 61 12 123q-36 -2 -109 -7q0 -21 2 -113q0 -18 -13 -18q-21 -3 -42 -3t-42 3q-13 0 -13 18t1 53.5t1 53.5q-23 -2 -68 -5q-20 -2 -25 10q-16 41 -8 82q0 10 21 11t41 2l41 2v72q-60 -4 -58 -4q-20 -2 -25 10q-15 39 -9 82q3 10 22 12q34 0 70 2l-4 173q-2 13 12 18
q21 3 43 3t43 -3q12 -4 12 -18q-3 -86 -3 -169l56 2q28 1 57 3q-5 83 -15 166q-4 17 18 18q173 11 324 0zM249 240q42 0 115 5q0 13 1 38v38q-60 -4 -116 -6v-75z" />
    <glyph glyph-name="dollar" unicode="$" horiz-adv-x="683" 
d="M71 532q4 12 17 12q123 -3 116 -3q-2 36 -2 76q0 17 12 21q21 5 43 5t44 -5q11 -4 11 -21q-2 -74 -2 -77h69q0 13 -1 38.5t-1 38.5q0 16 13 21q21 5 42 5q22 0 44 -5q11 -4 11 -21v-38q-1 -25 -1 -38q28 0 57 1l57 2q17 0 17 -13q3 -20 3 -40q0 -19 -3 -39q0 -12 -17 -12
q-30 0 -91 1t-91 1q-8 -52 -9 -101q103 1 217 -4q17 -1 17 -12q-2 -168 -15 -267q0 -12 -17 -12q-21 0 -62.5 1t-62.5 1q0 -12 1 -36v-35q0 -21 -12 -21q-21 -4 -42 -4t-42 4q-14 0 -14 21q0 12 1 36t1 36h-68v-36q0 3 1 -36q1 -21 -13 -21q-21 -4 -42 -4t-42 4
q-13 0 -13 21q0 35 2 71q-20 0 -58.5 -1t-58.5 -1q-17 0 -17 11q-5 21 -5 41t5 41q0 13 17 12l95 -3q47 -1 95 -1l4 48q2 24 2 48l-102 -2q-52 -1 -103 -1q-15 0 -17 11q-12 61 -7 140q5 76 17 141z" />
    <glyph glyph-name="percent" unicode="%" horiz-adv-x="821" 
d="M707 657q8 -9 -6 -29l-168 -246q105 1 226 -4q19 -1 18 -12q-6 -106 -6 -188q0 -98 6 -188q1 -11 -18 -12q-162 -5 -324 0q-20 1 -18 12l4 113q2 56 2 114l-192 -290q-13 -20 -26 -16q-42 18 -70 46q-9 12 5 31q22 30 82 118l82 119q-57 -1 -113 0q-62 0 -111 2
q-20 1 -18 13l6 187q2 101 -6 190q-1 11 18 12q183 7 324 0q19 -1 18 -12q-6 -105 -6 -225l98 148q32 49 96 149q13 20 26 16q41 -13 71 -48z" />
    <glyph glyph-name="ampersand" unicode="&#x26;" horiz-adv-x="631" 
d="M375 715q12 -3 12 -25q-2 -84 -2 -81l115 -5q48 -3 78 -2q11 0 16 -11q3 -21 3 -41q0 -21 -3 -41q-8 -13 -16 -11q-80 3 -159 3q-9 -77 -9 -153q83 0 163 3q11 0 16 -11q3 -21 3 -41q0 -21 -3 -41q-5 -12 -16 -12q-1 0 -82 2l-81 2q0 -74 9 -149q38 0 76 1l78 2
q11 0 16 -11q3 -21 3 -41q0 -21 -3 -41q-4 -11 -16 -11q-32 0 -94 -1.5t-93 -1.5v-39q0 1 1 -39q0 -20 -13 -25q-22 -4 -42 -4q-21 0 -42 4q-16 5 -13 25v39q1 26 1 39q-32 0 -95 1.5t-94 1.5q-21 0 -22 21q-13 140 -13 280q0 145 13 281q2 26 87 30q54 2 124 1q0 13 -1 39
v38q-3 20 12 25q44 11 86 0z" />
    <glyph glyph-name="quotesingle" unicode="'" horiz-adv-x="416" 
d="M52 776q91 4 150 4q52 -1 150 -4q18 -1 17 -12q3 -54 2 -83q-2 -51 -34 -119q-17 -35 -47 -105q-7 -15 -19 -11q-47 16 -76 36q-14 4 -5 22q18 35 52 105q-85 -2 -190 3q-16 1 -17 12q-3 26 1 68q3 45 -1 72q-2 11 17 12z" />
    <glyph glyph-name="parenleft" unicode="(" horiz-adv-x="290" 
d="M240 715q3 -1 8 -11.5t3 -13.5q-121 -190 -121 -383t121 -388q2 -3 -3.5 -13.5t-8.5 -11.5q-21 -4 -42 -4t-42 4l-14 25q-111 198 -107 392t107 379q5 12 13 25q42 12 86 0z" />
    <glyph glyph-name="parenright" unicode=")" horiz-adv-x="319" 
d="M64 -104q-3 1 -7.5 9.5t-4.5 12.5q0 2 1 3q121 191 121 383q0 193 -121 388q-3 3 3.5 14t9.5 11q21 3 42 3t41 -3q2 0 7 -11.5t7 -13.5q110 -200 106 -392q-4 -193 -106 -379q-4 -12 -13 -25q-21 -6 -43 -6q-21 0 -43 6z" />
    <glyph glyph-name="asterisk" unicode="*" horiz-adv-x="586" 
d="M32 512q3 10 15 12q72 2 144 8l-56 52q-28 26 -56 53q-11 8 -2 20q21 28 56 57q11 5 19 -3l45 -45l44 -45q-6 58 -10 118q-2 12 11 17q38 7 79 5q12 0 14 -14q1 -62 6 -125l69 89q7 7 12 7q4 0 7 -3q34 -22 62 -50q10 -10 0 -20q-27 -32 -83 -97q41 4 122 11q12 1 17 -11
q7 -39 5 -79q-1 -13 -14 -14q-41 -2 -122 -5q40 -40 82 -78q7 -8 4 -19q-24 -35 -58 -58q-4 -4 -8 -4q-5 0 -11 7q-17 16 -33 33l-32 34q3 -34 10 -101q2 -16 -10 -16q-31 -8 -59 -8q-12 0 -23 2t-12 14q-4 49 -6 111q-25 -32 -75 -97q-8 -11 -19 -5q-34 17 -63 52
q-9 8 1 19q27 31 82 97q-70 -6 -131 -13q-13 -1 -17 11q-11 38 -6 81z" />
    <glyph glyph-name="plus" unicode="+" horiz-adv-x="670" 
d="M78 300q32 2 96 5q0 75 -6 152q-1 11 18 12q183 7 324 0q19 -1 18 -12q-5 -72 -5 -128q38 2 81 7q13 2 18 -11q9 -37 6 -79q0 -14 -16 -14q-12 0 -44 -2q-28 -2 -45 -2q0 -71 5 -148q1 -12 -18 -13q-75 -3 -162 -3q-86 0 -162 3q-20 1 -18 13q0 45 5 125q-23 -3 -86 -8
q-18 -1 -18 10q-8 28 -8 57q0 12 0.5 24t16.5 12z" />
    <glyph glyph-name="comma" unicode="," horiz-adv-x="448" 
d="M67 169q91 4 150 4q52 -1 150 -4q18 -1 17 -12q3 -54 2 -83q-2 -50 -34 -118q-11 -24 -47 -105q-7 -15 -19 -11q-41 13 -76 35q-12 8 -5 22l26 53q13 27 26 52q-85 -2 -190 3q-16 1 -17 12q-3 26 1 68q3 45 -1 72q-2 11 17 12z" />
    <glyph glyph-name="hyphen" unicode="-" horiz-adv-x="580" 
d="M28 289q3 10 15 11q235 11 483 36q16 2 16 -11q7 -33 6 -79q0 -13 -15 -14q-254 -11 -482 -35q-14 -1 -17 10q-11 41 -6 82z" />
    <glyph glyph-name="hyphen" unicode="&#x2010;" horiz-adv-x="580" 
d="M28 289q3 10 15 11q235 11 483 36q16 2 16 -11q7 -33 6 -79q0 -13 -15 -14q-254 -11 -482 -35q-14 -1 -17 10q-11 41 -6 82z" />
    <glyph glyph-name="period" unicode="." horiz-adv-x="477" 
d="M95 169q93 4 150 4q54 -1 151 -4q17 -1 16 -12q-4 -23 -3 -72q1 -47 3 -68q1 -11 -16 -12q-152 -5 -301 0q-16 0 -16.5 11.5t-0.5 26.5q0 14 2 40t2 40q0 19 -3 34q-3 11 16 12z" />
    <glyph glyph-name="slash" unicode="/" horiz-adv-x="556" 
d="M570 657q8 -9 -6 -29q-242 -351 -471 -701q-13 -21 -25 -16q-38 15 -69 46q-8 14 4 31q281 406 470 701q13 20 25 16q42 -14 72 -48z" />
    <glyph glyph-name="zero" unicode="0" horiz-adv-x="707" 
d="M183 502q-2 -99 -2 -198t2 -198q26 -1 52 -1h53q9 99 9 199t-9 200q-18 0 -53 -1t-52 -1zM629 8q-9 -8 -87 -10q-78 -1 -172 0l-142 2q-91 2 -140 9q-16 0 -13 18q3 138 3 277t-3 279q-2 13 12 18q117 23 267 20t264 -16q20 0 22 -20q12 -136 11 -281q0 -145 -11 -280
q-1 -13 -11 -16z" />
    <glyph glyph-name="one" unicode="1" horiz-adv-x="587" 
d="M510 603q20 -1 18 -18q-19 -140 -19 -281q0 -140 19 -280q2 -17 -18 -18q-164 -8 -324 0q-17 1 -18 18q-13 154 -13 294q0 92 6 180q-21 0 -63 -1t-62 -1q-14 0 -14 13q-3 21 -3 42q0 20 3 41q0 15 14 14q125 -5 237 0q105 4 237 -3z" />
    <glyph glyph-name="two" unicode="2" horiz-adv-x="662" 
d="M58 14q4 221 31 329q0 12 15 11q81 -3 154 -3q6 85 8 154l-167 -4q-11 0 -16 11q-8 43 0 82q2 11 16 11q135 -3 244 -3q106 0 245 3q16 0 16 -12q11 -90 11 -186q0 -75 -7 -154q-2 -19 -18 -19q-87 -8 -174 -6q-11 -71 -14 -124q90 0 185 3q17 1 17 -12q2 -20 2 -40
t-2 -40q0 -14 -17 -12q-128 3 -256 3t-256 -3q-13 -2 -17 11z" />
    <glyph glyph-name="three" unicode="3" horiz-adv-x="653" 
d="M60 594q2 11 16 11q51 -1 129 3q114 6 130 7q80 2 148 1q41 -1 58 -4q42 -7 46 -27q12 -139 12 -281q0 -146 -12 -280q-2 -23 -22 -21q-119 -3 -241 -3q-123 0 -243 3q-12 -2 -16 11q-3 20 -3 41q0 20 3 41q3 11 16 11l78 -1q38 -1 77 -1q6 81 8 148q-31 0 -82 -2
q-64 -2 -81 -2q-12 0 -16 12q-4 21 -4 41t4 41q3 11 16 11q81 -3 163 -3q-2 68 -8 153q-70 0 -160 -3q-11 0 -16 11q-8 43 0 82z" />
    <glyph glyph-name="four" unicode="4" horiz-adv-x="703" 
d="M619 603q17 -1 18 -18q12 -137 11 -281q-1 -149 -11 -280q-1 -17 -18 -18q-162 -7 -325 0q-20 1 -18 18q15 118 18 229q-52 0 -103 1q-52 1 -103 -5q-9 -1 -16.5 7t-6.5 17q6 79 5 166q-1 68 -5 167q0 11 12 11q21 3 43 3t44 -3q11 0 11 -11q-5 -141 -2 -254h61
q40 -1 60 -1q-3 114 -18 234q-2 17 18 18q172 11 325 0z" />
    <glyph glyph-name="five" unicode="5" horiz-adv-x="657" 
d="M53 593q4 12 17 12q140 -5 256 -4q94 0 257 4q16 0 16 -13q3 -20 3 -40q0 -19 -3 -39q0 -12 -16 -12q-31 0 -92.5 1t-92.5 1q5 -69 13 -123q96 0 174 -6q18 -1 19 -20q6 -77 6 -150q0 -98 -11 -189q0 -14 -16 -12q-121 2 -244 2q-122 0 -245 -2q-15 -2 -15 10
q-4 20 -4 41q0 20 4 41q0 13 15 12l84 -3q41 -1 83 -1q-2 68 -8 153q-26 0 -76.5 -1t-76.5 -1q-16 0 -16 10q-27 108 -31 329z" />
    <glyph glyph-name="six" unicode="6" horiz-adv-x="695" 
d="M595 3q-122 4 -259 -6q-46 -3 -88 -3q-89 0 -166 14q-11 0 -11 17q3 140 3 263q0 94 -3 263q0 5 11 19.5t16 14.5q230 14 487 46q16 2 16 -11q9 -43 8 -84q0 -13 -14 -14q-199 -12 -416 -37q-2 -36 -2 -72q169 13 432 41q12 1 17 -11q21 -100 20 -212q-2 -113 -17 -212
q-1 -6 -13.5 -11t-20.5 -5zM280 317l-104 -12q0 -48 0.5 -96.5t1.5 -96.5q26 -1 52 -1h51q5 50 5 99q0 54 -6 107z" />
    <glyph glyph-name="seven" unicode="7" horiz-adv-x="670" 
d="M629 603q16 -1 13 -18q-51 -269 -158 -561q-7 -17 -23 -18q-163 -7 -325 0q-21 1 -13 18q95 229 143 475l-102 -2q-50 -1 -101 -1q-17 0 -17 13q-4 21 -4 42q0 20 4 41q0 15 17 14q147 -5 283 2q133 6 283 -5z" />
    <glyph glyph-name="eight" unicode="8" horiz-adv-x="701" 
d="M176 502q-2 -74 -2 -149q58 -2 116 -2q-2 76 -9 153q-18 0 -52.5 -1t-52.5 -1zM175 251v-72q0 -37 1 -73q26 -1 52 -1h53q7 73 9 148q-19 0 -57.5 -1t-57.5 -1zM621 8q-9 -8 -86 -10q-78 -1 -172 0l-142 2q-91 2 -140 9q-14 0 -14 18q8 279 0 556q0 13 13 18
q91 18 211 18q34 0 70 -1q97 -4 250 -13q20 -1 22 -20q12 -136 12 -281q0 -144 -12 -280q-1 -14 -12 -16z" />
    <glyph glyph-name="nine" unicode="9" horiz-adv-x="678" 
d="M132 599q142 3 224 4q85 1 158 0t82 -5q29 -7 29 -21q-3 -152 -3 -278q0 -122 3 -278q0 -18 -12 -18q-21 -2 -42 -2t-42 2q-7 -1 -11 4t-3 14q0 28 2 85l2 85q-228 -18 -432 -42q-14 -2 -17 11q-21 99 -20 212q2 112 17 213q2 13 29 14h36zM416 286l104 12q0 32 -1 97
t-1 97h-53q-25 0 -50 1q-6 -51 -6 -100q0 -54 7 -107z" />
    <glyph glyph-name="colon" unicode=":" horiz-adv-x="426" 
d="M69 469q93 4 150 4q54 -1 151 -4q17 -1 16 -12q-4 -23 -3 -72q1 -47 3 -68q1 -11 -16 -12q-90 -4 -151 -3q-55 0 -150 3q-16 1 -16.5 12t-0.5 26q0 14 2 40t2 40q0 19 -3 34q-3 11 16 12zM69 169q93 4 150 4q54 -1 151 -4q17 -1 16 -12q-4 -23 -3 -72q1 -47 3 -68
q1 -11 -16 -12q-152 -5 -301 0q-16 0 -16.5 11.5t-0.5 26.5q0 14 2 40t2 40q0 19 -3 34q-3 11 16 12z" />
    <glyph glyph-name="semicolon" unicode=";" horiz-adv-x="421" 
d="M68 169q92 4 150 4q53 -1 150 -4q18 -1 17 -12q3 -54 2 -83q-1 -50 -34 -118q-11 -24 -47 -105q-6 -15 -19 -11q-41 13 -76 35q-12 8 -5 22l26 53q13 27 26 52q-85 -2 -190 3q-15 1 -17 12q-2 26 1 68q3 45 -1 72q-1 11 17 12zM63 469q93 4 150 4q54 -1 151 -4
q17 -1 16 -12q-4 -23 -3 -72q1 -47 3 -68q1 -11 -16 -12q-90 -4 -151 -3q-55 0 -150 3q-16 1 -16.5 12t-0.5 26q0 14 2 40t2 40q0 19 -3 34q-3 11 16 12z" />
    <glyph glyph-name="less" unicode="&#x3c;" horiz-adv-x="454" 
d="M223 207q58 -36 73 -41q21 -7 83 -42q10 -6 10 -15t-9 -18q-51 -53 -96 -83q-6 -6 -12 -6q-9 0 -18 12q-17 25 -119 148q-40 46 -43 47l-1 -1q-3 0 -44 45q-13 15 -4 30q39 50 94 83l22 21q49 50 65 69q25 29 63 70q10 11 18 11q7 0 13 -7q43 -33 90 -89q7 -9 7 -17
q0 -11 -10 -16q-65 -31 -86 -36q-16 -4 -76 -36q-21 -11 -35 -43q-6 -16 -12 -31q1 -10 3 -20q3 -22 24 -35z" />
    <glyph glyph-name="equal" unicode="=" horiz-adv-x="644" 
d="M52 387q0 11 15 12q228 11 483 36q16 0 16 -11q7 -39 6 -80q0 -12 -15 -13q-267 -12 -482 -36q-13 -2 -17 11q-11 39 -6 81zM86 235l241 15q115 8 241 20q12 1 17 -11q7 -38 6 -79q0 -13 -15 -14q-246 -10 -483 -35q-16 -2 -16 10q-8 27 -8 56q0 13 1 25t16 13z" />
    <glyph glyph-name="greater" unicode="&#x3e;" horiz-adv-x="454" 
d="M235 207q-58 -36 -72 -41q-22 -7 -84 -42q-9 -6 -9 -15t8 -18q51 -53 96 -83q6 -6 13 -6q8 0 18 12q17 25 118 148q40 46 43 47l1 -1q3 0 44 45q13 15 4 30q-39 50 -94 83l-21 21q-50 50 -66 69q-24 29 -63 70q-10 11 -18 11q-7 0 -13 -7q-42 -33 -90 -89q-7 -9 -7 -17
q0 -11 11 -16q64 -31 86 -36q15 -4 75 -36q21 -11 35 -43q6 -16 12 -31l-2 -20q-4 -22 -25 -35z" />
    <glyph glyph-name="question" unicode="?" horiz-adv-x="672" 
d="M112 169q92 4 151 4q54 -1 150 -4q17 -1 16 -12q-4 -23 -3 -72q1 -47 3 -68q1 -11 -16 -12q-151 -5 -301 0q-16 1 -16.5 12t-0.5 26q0 14 1.5 40t1.5 40q0 19 -2 34q-4 11 16 12zM88 645q0 11 16 11q122 -3 244 -3t244 3q16 0 16 -12q11 -92 11 -190q0 -73 -6 -150
q-2 -31 -20 -30q-231 7 -484 0q-16 -2 -16 11q-4 20 -4 41q0 20 4 41q0 11 16 11q159 -3 151 -3l6 90q3 45 4 90q-28 0 -83 -1.5t-83 -1.5q-16 -2 -16 11q-4 20 -4 41q0 20 4 41z" />
    <glyph glyph-name="at" unicode="@" horiz-adv-x="1093" 
d="M160 502q-2 -119 -1 -238q0 -97 3 -237q0 -18 -13 -18q-21 -3 -42 -3t-42 3q-13 0 -13 18q8 279 0 556q0 14 12 18q76 4 199 4q122 0 257 -1l266 -3q117 -1 223 2q16 0 18 -18q12 -134 12 -281q0 -140 -12 -280q-1 -17 -18 -18q-133 -6 -373 -4q-261 2 -373 -1
q-16 0 -16 12q-8 62 -8 126q0 34 2 69q7 97 2 199q0 7 12 11q65 7 160 7q94 0 160 -7q11 -4 11 -11q-6 -150 -1 -305q15 0 45 1h45q9 100 9 200t-9 201q-107 1 -257 1q-97 0 -258 -3zM480 312q-22 0 -65 1h-64q-1 -53 -1 -105q0 -53 2 -105h63q42 -1 63 -1q2 104 2 210z" />
    <glyph glyph-name="A" unicode="A" 
d="M132 3q-8 -1 -32 0q-25 0 -27 11q-16 87 -15 185q1 97 20 185q4 12 17 11l215 -23q107 -11 215 -18q-1 16 -1 49q-190 31 -368 48q-13 1 -13 15q1 43 12 83q4 13 16 11q228 -38 432 -60q12 0 21 -18.5t8 -31.5q-7 -213 0 -430q0 -10 -11.5 -14t-24.5 -4q-121 4 -233 1
q-58 -1 -116 -1q-57 0 -115 1zM525 110q0 23 1 68v68l-103 12q-7 -45 -7 -90q0 -29 3 -59q18 0 53 1h53z" />
    <glyph glyph-name="B" unicode="B" horiz-adv-x="681" 
d="M547 3l-225 -4q-85 -1 -157 0q-73 1 -82 5q-29 2 -29 21q5 280 0 556q0 13 13 18q21 3 42 3t42 -3q13 -5 13 -18l-3 -85q-1 -43 -1 -85q203 15 432 42q12 1 17 -11q21 -101 20 -213q-2 -113 -17 -212q-2 -13 -30 -13zM264 315q-54 -5 -104 -12v-96q0 -49 2 -97h52
q34 -1 51 -1q4 50 4 99q0 54 -5 107z" />
    <glyph glyph-name="C" unicode="C" horiz-adv-x="680" 
d="M122 464q238 -9 489 0q10 0 16 -14q2 -21 2 -41q0 -21 -2 -42q-5 -13 -16 -13q-47 0 -94 1l-93 2q-8 -64 -8 -129q0 -60 7 -121q70 0 188 4q10 0 16 -14q2 -21 2 -42t-2 -41q-6 -13 -16 -13q-247 6 -489 0q-46 -1 -47 16q-12 107 -13 209q0 104 13 209q-2 1 -2 3
q0 6 16 16q21 13 33 10z" />
    <glyph glyph-name="D" unicode="D" horiz-adv-x="695" 
d="M146 3q-64 0 -66 14q-15 99 -17 212q-1 112 21 213q0 13 17 11q235 -28 431 -42q0 28 -1.5 85t-1.5 85q-2 13 13 18q21 3 42 3t42 -3q12 -5 12 -18q-3 -115 -3 -279q0 -124 3 -277q0 -21 -29 -21q-9 -4 -82 -5t-157 0t-154 3zM429 315q-7 -56 -7 -110q0 -49 6 -96
q17 0 51 1h52q0 32 1 96.5t1 96.5q-54 7 -104 12z" />
    <glyph glyph-name="E" unicode="E" horiz-adv-x="675" 
d="M619 434q14 -65 16 -129q1 -65 -16 -128q-3 -11 -34 -10q-112 2 -209 3q-105 0 -209 -2v-32q0 -16 1 -31q165 0 362 11q5 0 9.5 -4.5t4.5 -8.5q5 -42 3 -84q-5 -13 -14 -13q-219 0 -437 -10q-3 -2 -7 -2q-6 0 -15 4q-16 8 -13 19q2 102 3 205q0 102 -3 204q-1 1 -1 2
q0 5 13 20q16 19 24 16q250 -10 488 0q7 0 21.5 -14.5t12.5 -15.5zM168 355q-1 -21 -1 -40v-40q54 -2 108 -2q2 39 -2 84q-54 -2 -105 -2z" />
    <glyph glyph-name="F" unicode="F" horiz-adv-x="666" 
d="M121 629q233 -30 487 -40q15 -2 15 -15q1 -45 -7 -84q-6 -12 -17 -11l-89 9q-45 4 -90 9q-11 -105 -9 -209q87 0 194 5q15 1 15 -14q3 -21 3 -42t-3 -42q0 -14 -15 -12q-32 0 -95.5 1t-95.5 1q4 -87 15 -162q3 -18 -18 -19q-69 -4 -162 -3q-89 0 -162 3q-17 1 -18 19
q-10 160 -11 280q-1 140 11 281q1 16 18.5 32t27.5 16q4 0 6 -3z" />
    <glyph glyph-name="G" unicode="G" horiz-adv-x="697" 
d="M101 456q78 3 233.5 1t233.5 1q22 1 43 1q30 -1 30 -22q-6 -283 0 -556q0 -11 -11 -16t-23 -5q-217 7 -437 0q-10 0 -14 13q-2 21 -2 42t2 42q4 13 14 13q187 -7 363 -3q0 41 2 83q-216 -17 -430 -42q-17 -2 -17 11q-22 101 -21 212q1 106 16 213q2 11 18 12zM534 351
q-17 0 -52 1h-52q-5 -49 -5 -96q0 -57 7 -110q50 4 104 12q0 32 -1 96.5t-1 96.5z" />
    <glyph glyph-name="H" unicode="H" horiz-adv-x="710" 
d="M289 5q-19 1 -18 12q5 87 6 147q1 75 -1 151l-99 -12q0 -191 4 -278q1 -18 -12 -18q-22 -4 -44 -4q-21 0 -42 4q-12 0 -12 18q5 279 0 556q0 13 13 18q21 3 42 3t42 -3q13 -5 13 -18q-3 -168 -3 -170q208 15 431 42q12 1 17 -11q15 -72 15 -154q0 -29 -1 -59
q-8 -115 -8 -212q0 -11 -18 -12q-162 -6 -325 0z" />
    <glyph glyph-name="I" unicode="I" horiz-adv-x="498" 
d="M94 484q67 4 163 4q106 -1 162 -4q19 -1 18 -15q-6 -126 -6 -226q0 -99 6 -225q1 -14 -18 -15q-177 -5 -325 0q-19 1 -18 15q9 225 0 451q-1 14 18 15zM30 741q200 34 389 36q22 0 22 -3q26 -93 24 -159q0 -3 -20 -7q-192 -38 -389 -36q-22 0 -23 3q-25 87 -24 159
q0 3 21 7z" />
    <glyph glyph-name="J" unicode="J" horiz-adv-x="522" 
d="M109 482q153 11 325 0q19 -1 18 -18q-6 -155 -6 -265q0 -176 4 -264q3 -59 3 -53q0 -13 -15 -14q-233 -13 -485 -46q-12 -2 -17 11q-10 38 -8 86q1 11 15 12q5 0 75 6l74 6q3 122 3 260q0 87 -4 261q0 17 18 18zM45 741q200 34 389 36q21 0 22 -3q26 -91 24 -159
q0 -3 -21 -7q-195 -38 -389 -36q-21 0 -22 3q-24 87 -24 159q0 3 21 7z" />
    <glyph glyph-name="K" unicode="K" horiz-adv-x="682" 
d="M602 437q12 1 16 -12.5t6 -26.5q-2 -22 -2 -74q0 -116 2 -225q1 -55 1 -82q0 -11 -18 -12q-163 -6 -325 0q-19 1 -18 12q9 151 5 282q-33 -3 -99 -11q0 -152 4 -263q1 -18 -12 -18q-22 -4 -44 -4t-43 4q-11 0 -11 18q5 279 0 556q0 13 13 18q21 3 42 3t42 -3
q13 -5 13 -18q-3 -129 -3 -118q161 69 315 145q15 7 20 -5q25 -36 36 -78q0 -13 -12 -18q-59 -25 -116 -49l-122 -53q171 16 310 32z" />
    <glyph glyph-name="L" unicode="L" horiz-adv-x="490" 
d="M92 602q74 6 162 6q80 -1 163 -6q19 -3 18 -18q-19 -140 -19 -280t19 -281q2 -18 -18 -19q-69 -4 -163 -3q-90 0 -162 3q-17 1 -18 19q-13 148 -13 280q0 141 13 281q1 17 18 18z" />
    <glyph glyph-name="M" unicode="M" horiz-adv-x="1139" 
d="M275 5q-19 1 -18 12q4 93 6 147q1 75 -2 151l-98 -12q-2 -141 4 -284q1 -13 -12 -13q-22 -4 -44 -4q-21 0 -43 4q-11 0 -11 13q6 214 0 428q0 14 13 14q21 2 42 2t42 -2q13 0 13 -14v-18q-1 -12 -1 -18q204 15 429 42q12 1 17 -11l5 -31q211 15 437 42q12 1 17 -11
q15 -72 15 -154q0 -29 -1 -59q-8 -115 -8 -212q0 -11 -18 -12q-164 -6 -325 0q-19 1 -18 12q4 93 6 147q1 75 -2 151l-50 -6q-26 -3 -50 -6q0 -48 -1 -143t-1 -143q0 -11 -18 -12q-162 -6 -325 0z" />
    <glyph glyph-name="N" unicode="N" horiz-adv-x="679" 
d="M279 5q-20 1 -18 12q4 72 6 147q1 75 -2 151l-98 -12q-2 -141 4 -284q1 -13 -13 -13q-22 -4 -43 -4t-43 4q-11 0 -11 13q3 118 3 214q-1 87 -3 214q0 14 12 14q21 2 42 2t42 -2q14 0 14 -14q-2 -18 -2 -36q204 15 430 42q12 1 17 -11q15 -71 15 -151q0 -30 -2 -62
q-8 -115 -8 -212q0 -11 -18 -12q-161 -6 -324 0z" />
    <glyph glyph-name="O" unicode="O" horiz-adv-x="685" 
d="M571 464q4 3 9 3q10 0 22 -9q19 -15 16 -23q12 -105 11 -209q-1 -112 -11 -209q-1 -15 -41 -15l-495 -1q-9 0 -20 5t-10 13q3 107 3 214q-1 107 -3 214q-1 8 10 12.5t20 4.5q247 -10 489 0zM159 355q-1 -61 -1 -123q0 -61 1 -123q54 -2 110 -2q6 57 6 117q0 65 -7 133
q-54 -2 -109 -2z" />
    <glyph glyph-name="P" unicode="P" horiz-adv-x="674" 
d="M542 459q63 0 65 -14q15 -101 17 -213q1 -113 -20 -212q-5 -12 -17 -11q-211 25 -432 41q0 -48 4 -168q1 -18 -14 -18q-21 -3 -42 -3t-41 3q-13 0 -13 18q2 169 3 277q0 182 -3 278q0 15 29 21q8 4 81 5t158 0q84 -1 154 -2zM258 146q6 53 6 107q0 49 -5 99h-52
q-34 -1 -51 -1q-1 -48 -1 -96l-1 -97z" />
    <glyph glyph-name="Q" unicode="Q" horiz-adv-x="691" 
d="M143 459q142 3 224 4q84 1 157 0t82 -5q29 -7 29 -21q-3 -153 -3 -278q0 -160 3 -277q0 -18 -12 -18q-21 -3 -42 -3t-42 3q-5 0 -9.5 6.5t-3.5 11.5q0 28 1.5 84t1.5 84q-198 -15 -431 -41q-17 -2 -17 11q-22 99 -21 212q2 112 17 213q2 13 29 14h37zM426 146l51 6
q26 3 53 6q0 32 -1 96.5t-1 96.5q-18 0 -52 1h-51q-6 -47 -6 -96q0 -54 7 -110z" />
    <glyph glyph-name="R" unicode="R" 
d="M612 488q38 -113 29 -266q-2 -43 -38 -47q-70 -7 -143 -8q-74 -2 -148 9q-27 4 -26 35q3 80 -5 142l-57 -8q-28 -4 -55 -7q-3 -135 2 -303q1 -13 -13 -13q-21 -3 -42 -3t-42 3q-15 0 -13 13q3 96 4 193q0 97 -4 195q-2 13 25 15q317 29 508 60q14 2 18 -10z" />
    <glyph glyph-name="S" unicode="S" horiz-adv-x="715" 
d="M84 487q0 12 16 11q258 -9 513 0q12 0 17 -12q2 -20 2 -40t-2 -40q-4 -12 -17 -12q-46 0 -92 1l-91 2q-6 -51 -9 -102q121 3 218 -3q16 -1 16 -13q0 -157 -14 -266q-4 -12 -17 -12q-157 2 -263 3q-141 0 -262 -3q-15 0 -17 11q-8 38 0 81q4 12 17 12l96 -3q47 -1 95 -1
q4 48 6 96q-34 0 -102.5 -1t-102.5 -1q-14 -2 -17 10q-13 62 -8 140q5 76 18 142z" />
    <glyph glyph-name="T" unicode="T" horiz-adv-x="683" 
d="M131 -12q-3 -3 -7 -3q-10 0 -28.5 16t-18.5 26q0 3 2 5q-13 138 -13 280q0 115 13 281q1 17 18 18q161 8 324 0q20 -1 18 -18q-12 -98 -15 -163q48 0 95 1l95 2q16 0 16 -13q2 -21 2 -42t-2 -41q0 -14 -16 -14q-22 0 -97 2q-60 2 -96 2q-2 -104 9 -208l89 8q45 4 90 10
q13 0 17 -12q7 -39 7 -83q-1 -14 -15 -15q-243 -12 -487 -39z" />
    <glyph glyph-name="U" unicode="U" horiz-adv-x="696" 
d="M417 459q18 -1 18 -12q-6 -89 -6 -148q-1 -75 2 -150l98 12q0 139 -4 284q-1 13 12 13q21 3 43 3q21 0 44 -3q11 0 11 -13q-6 -214 0 -428q0 -14 -13 -14q-22 -2 -43 -2q-20 0 -40 2q-15 0 -14 14q0 26 1 36q-227 -18 -429 -42q-15 -2 -17 11q-22 93 -14 212q8 115 8 213
q0 11 18 12q103 3 162 4q66 0 163 -4z" />
    <glyph glyph-name="V" unicode="V" horiz-adv-x="686" 
d="M316 459q69 4 163 4q106 -1 162 -4q17 -1 13 -14q-44 -141 -139 -421q-5 -13 -22 -14q-54 -2 -171 -5q-88 -3 -170 6q-14 0 -15 14q-51 226 -101 427q-3 14 7 14q20 3 42 3q21 0 44 -3q12 0 16 -14q24 -128 63 -282q50 142 86 275q4 13 22 14z" />
    <glyph glyph-name="W" unicode="W" horiz-adv-x="1204" 
d="M324 459q49 3 162 10q40 3 74 3q50 0 91 -6q12 0 16 -14q27 -141 63 -282q45 129 85 275q4 13 23 14q69 4 163 4q106 -1 162 -4q17 -1 13 -14q-44 -141 -139 -421q-5 -13 -23 -14q-57 -2 -170 -5q-88 -3 -170 6q-13 0 -16 14q-26 118 -54 240q-33 -105 -81 -241
q-5 -13 -22 -14q-57 -2 -170 -5q-88 -3 -170 6q-15 0 -16 14q-51 226 -101 427q-3 14 8 14q20 3 41 3t44 -3q13 0 16 -14q25 -128 63 -282q50 142 86 275q4 13 22 14z" />
    <glyph glyph-name="X" unicode="X" horiz-adv-x="774" 
d="M372 459q84 4 184 4q100 -1 178 -4q10 -1 10 -7q0 -3 -2 -7q-66 -93 -200 -279l87 -71q53 -43 82 -70q15 -14 1 -14q-53 -8 -138 -6q-13 0 -26 13q-23 22 -68 62q-14 -19 -42 -56q-10 -13 -28 -14q-77 -3 -184 -3q-106 0 -178 3q-18 1 -8 14q94 121 190 255
q-100 76 -176 147q-14 13 -3 13q18 4 69 6q43 2 77 0q13 -1 32 -18q14 -13 29.5 -28t33.5 -31q26 38 52 77q7 11 28 14z" />
    <glyph glyph-name="Y" unicode="Y" horiz-adv-x="694" 
d="M422 456q19 -1 18 -12q-18 -93 -18 -185q0 -57 7 -113q53 4 103 12q0 139 -4 279q-2 13 12 18q21 3 43 3t43 -3q11 -5 11 -18q-3 -115 -3 -279q0 -121 3 -277q0 -16 -21 -19q-4 -1 -34 -1q-105 0 -208 1q-93 1 -207 -2q-14 0 -14 13q-3 21 -3 42t3 42q0 14 14 13
q190 -7 363 -3q0 14 1 42v41q-228 -18 -430 -42q-14 -2 -17 11q-22 97 -21 212q1 106 16 213q2 11 18 12q102 3 163 4q65 0 162 -4z" />
    <glyph glyph-name="Z" unicode="Z" horiz-adv-x="682" 
d="M632 456q15 -1 11 -14q-73 -162 -180 -334q45 0 119 3q15 1 15 -14q2 -21 2 -42t-2 -41q0 -13 -15 -13q-139 3 -264 0q-139 -4 -265 0q-20 1 -10 14q143 194 210 341q-27 0 -80.5 -1t-80.5 -1q-14 0 -16 11q-9 42 0 86q3 14 16 13q80 -3 270 -3q173 1 270 -5z" />
    <glyph glyph-name="backslash" unicode="\" horiz-adv-x="588" 
d="M8 657q28 34 71 48q12 4 25 -16q216 -336 471 -701q12 -18 4 -31q-30 -29 -69 -46q-13 -4 -26 16q-168 256 -470 701q-13 20 -6 29z" />
    <glyph glyph-name="underscore" unicode="_" horiz-adv-x="611" 
d="M54 -21q3 10 15 11q253 11 483 35q16 2 16 -11q7 -31 6 -78q0 -13 -15 -14q-227 -8 -482 -35q-14 -1 -17 10q-11 41 -6 82z" />
    <glyph glyph-name="a" unicode="a" 
d="M132 3q-8 -1 -32 0q-25 0 -27 11q-16 87 -15 185q1 97 20 185q4 12 17 11l215 -23q107 -11 215 -18q-1 16 -1 49q-190 31 -368 48q-13 1 -13 15q1 43 12 83q4 13 16 11q228 -38 432 -60q12 0 21 -18.5t8 -31.5q-7 -213 0 -430q0 -10 -11.5 -14t-24.5 -4q-121 4 -233 1
q-58 -1 -116 -1q-57 0 -115 1zM525 110q0 23 1 68v68l-103 12q-7 -45 -7 -90q0 -29 3 -59q18 0 53 1h53z" />
    <glyph glyph-name="b" unicode="b" horiz-adv-x="681" 
d="M547 3l-225 -4q-85 -1 -157 0q-73 1 -82 5q-29 2 -29 21q5 280 0 556q0 13 13 18q21 3 42 3t42 -3q13 -5 13 -18l-3 -85q-1 -43 -1 -85q203 15 432 42q12 1 17 -11q21 -101 20 -213q-2 -113 -17 -212q-2 -13 -30 -13zM264 315q-54 -5 -104 -12v-96q0 -49 2 -97h52
q34 -1 51 -1q4 50 4 99q0 54 -5 107z" />
    <glyph glyph-name="c" unicode="c" horiz-adv-x="680" 
d="M122 464q238 -9 489 0q10 0 16 -14q2 -21 2 -41q0 -21 -2 -42q-5 -13 -16 -13q-47 0 -94 1l-93 2q-8 -64 -8 -129q0 -60 7 -121q70 0 188 4q10 0 16 -14q2 -21 2 -42t-2 -41q-6 -13 -16 -13q-247 6 -489 0q-46 -1 -47 16q-12 107 -13 209q0 104 13 209q-2 1 -2 3
q0 6 16 16q21 13 33 10z" />
    <glyph glyph-name="d" unicode="d" horiz-adv-x="695" 
d="M146 3q-64 0 -66 14q-15 99 -17 212q-1 112 21 213q0 13 17 11q235 -28 431 -42q0 28 -1.5 85t-1.5 85q-2 13 13 18q21 3 42 3t42 -3q12 -5 12 -18q-3 -115 -3 -279q0 -124 3 -277q0 -21 -29 -21q-9 -4 -82 -5t-157 0t-154 3zM429 315q-7 -56 -7 -110q0 -49 6 -96
q17 0 51 1h52q0 32 1 96.5t1 96.5q-54 7 -104 12z" />
    <glyph glyph-name="e" unicode="e" horiz-adv-x="675" 
d="M619 434q14 -65 16 -129q1 -65 -16 -128q-3 -11 -34 -10q-112 2 -209 3q-105 0 -209 -2v-32q0 -16 1 -31q165 0 362 11q5 0 9.5 -4.5t4.5 -8.5q5 -42 3 -84q-5 -13 -14 -13q-219 0 -437 -10q-3 -2 -7 -2q-6 0 -15 4q-16 8 -13 19q2 102 3 205q0 102 -3 204q-1 1 -1 2
q0 5 13 20q16 19 24 16q250 -10 488 0q7 0 21.5 -14.5t12.5 -15.5zM168 355q-1 -21 -1 -40v-40q54 -2 108 -2q2 39 -2 84q-54 -2 -105 -2z" />
    <glyph glyph-name="f" unicode="f" horiz-adv-x="666" 
d="M121 629q233 -30 487 -40q15 -2 15 -15q1 -45 -7 -84q-6 -12 -17 -11l-89 9q-45 4 -90 9q-11 -105 -9 -209q87 0 194 5q15 1 15 -14q3 -21 3 -42t-3 -42q0 -14 -15 -12q-32 0 -95.5 1t-95.5 1q4 -87 15 -162q3 -18 -18 -19q-69 -4 -162 -3q-89 0 -162 3q-17 1 -18 19
q-10 160 -11 280q-1 140 11 281q1 16 18.5 32t27.5 16q4 0 6 -3z" />
    <glyph glyph-name="g" unicode="g" horiz-adv-x="697" 
d="M101 456q78 3 233.5 1t233.5 1q22 1 43 1q30 -1 30 -22q-6 -283 0 -556q0 -11 -11 -16t-23 -5q-217 7 -437 0q-10 0 -14 13q-2 21 -2 42t2 42q4 13 14 13q187 -7 363 -3q0 41 2 83q-216 -17 -430 -42q-17 -2 -17 11q-22 101 -21 212q1 106 16 213q2 11 18 12zM534 351
q-17 0 -52 1h-52q-5 -49 -5 -96q0 -57 7 -110q50 4 104 12q0 32 -1 96.5t-1 96.5z" />
    <glyph glyph-name="h" unicode="h" horiz-adv-x="710" 
d="M289 5q-19 1 -18 12q5 87 6 147q1 75 -1 151l-99 -12q0 -191 4 -278q1 -18 -12 -18q-22 -4 -44 -4q-21 0 -42 4q-12 0 -12 18q5 279 0 556q0 13 13 18q21 3 42 3t42 -3q13 -5 13 -18q-3 -168 -3 -170q208 15 431 42q12 1 17 -11q15 -72 15 -154q0 -29 -1 -59
q-8 -115 -8 -212q0 -11 -18 -12q-162 -6 -325 0z" />
    <glyph glyph-name="i" unicode="i" horiz-adv-x="498" 
d="M94 484q67 4 163 4q106 -1 162 -4q19 -1 18 -15q-6 -126 -6 -226q0 -99 6 -225q1 -14 -18 -15q-177 -5 -325 0q-19 1 -18 15q9 225 0 451q-1 14 18 15zM30 741q200 34 389 36q22 0 22 -3q26 -93 24 -159q0 -3 -20 -7q-192 -38 -389 -36q-22 0 -23 3q-25 87 -24 159
q0 3 21 7z" />
    <glyph glyph-name="j" unicode="j" horiz-adv-x="522" 
d="M109 482q153 11 325 0q19 -1 18 -18q-6 -155 -6 -265q0 -176 4 -264q3 -59 3 -53q0 -13 -15 -14q-233 -13 -485 -46q-12 -2 -17 11q-10 38 -8 86q1 11 15 12q5 0 75 6l74 6q3 122 3 260q0 87 -4 261q0 17 18 18zM45 741q200 34 389 36q21 0 22 -3q26 -91 24 -159
q0 -3 -21 -7q-195 -38 -389 -36q-21 0 -22 3q-24 87 -24 159q0 3 21 7z" />
    <glyph glyph-name="k" unicode="k" horiz-adv-x="682" 
d="M602 437q12 1 16 -12.5t6 -26.5q-2 -22 -2 -74q0 -116 2 -225q1 -55 1 -82q0 -11 -18 -12q-163 -6 -325 0q-19 1 -18 12q9 151 5 282q-33 -3 -99 -11q0 -152 4 -263q1 -18 -12 -18q-22 -4 -44 -4t-43 4q-11 0 -11 18q5 279 0 556q0 13 13 18q21 3 42 3t42 -3
q13 -5 13 -18q-3 -129 -3 -118q161 69 315 145q15 7 20 -5q25 -36 36 -78q0 -13 -12 -18q-59 -25 -116 -49l-122 -53q171 16 310 32z" />
    <glyph glyph-name="l" unicode="l" horiz-adv-x="490" 
d="M92 602q74 6 162 6q80 -1 163 -6q19 -3 18 -18q-19 -140 -19 -280t19 -281q2 -18 -18 -19q-69 -4 -163 -3q-90 0 -162 3q-17 1 -18 19q-13 148 -13 280q0 141 13 281q1 17 18 18z" />
    <glyph glyph-name="m" unicode="m" horiz-adv-x="1139" 
d="M275 5q-19 1 -18 12q4 93 6 147q1 75 -2 151l-98 -12q-2 -141 4 -284q1 -13 -12 -13q-22 -4 -44 -4q-21 0 -43 4q-11 0 -11 13q6 214 0 428q0 14 13 14q21 2 42 2t42 -2q13 0 13 -14v-18q-1 -12 -1 -18q204 15 429 42q12 1 17 -11l5 -31q211 15 437 42q12 1 17 -11
q15 -72 15 -154q0 -29 -1 -59q-8 -115 -8 -212q0 -11 -18 -12q-164 -6 -325 0q-19 1 -18 12q4 93 6 147q1 75 -2 151l-50 -6q-26 -3 -50 -6q0 -48 -1 -143t-1 -143q0 -11 -18 -12q-162 -6 -325 0z" />
    <glyph glyph-name="n" unicode="n" horiz-adv-x="679" 
d="M279 5q-20 1 -18 12q4 72 6 147q1 75 -2 151l-98 -12q-2 -141 4 -284q1 -13 -13 -13q-22 -4 -43 -4t-43 4q-11 0 -11 13q3 118 3 214q-1 87 -3 214q0 14 12 14q21 2 42 2t42 -2q14 0 14 -14q-2 -18 -2 -36q204 15 430 42q12 1 17 -11q15 -71 15 -151q0 -30 -2 -62
q-8 -115 -8 -212q0 -11 -18 -12q-161 -6 -324 0z" />
    <glyph glyph-name="o" unicode="o" horiz-adv-x="685" 
d="M571 464q4 3 9 3q10 0 22 -9q19 -15 16 -23q12 -105 11 -209q-1 -112 -11 -209q-1 -15 -41 -15l-495 -1q-9 0 -20 5t-10 13q3 107 3 214q-1 107 -3 214q-1 8 10 12.5t20 4.5q247 -10 489 0zM159 355q-1 -61 -1 -123q0 -61 1 -123q54 -2 110 -2q6 57 6 117q0 65 -7 133
q-54 -2 -109 -2z" />
    <glyph glyph-name="p" unicode="p" horiz-adv-x="674" 
d="M542 459q63 0 65 -14q15 -101 17 -213q1 -113 -20 -212q-5 -12 -17 -11q-211 25 -432 41q0 -48 4 -168q1 -18 -14 -18q-21 -3 -42 -3t-41 3q-13 0 -13 18q2 169 3 277q0 182 -3 278q0 15 29 21q8 4 81 5t158 0q84 -1 154 -2zM258 146q6 53 6 107q0 49 -5 99h-52
q-34 -1 -51 -1q-1 -48 -1 -96l-1 -97z" />
    <glyph glyph-name="q" unicode="q" horiz-adv-x="691" 
d="M143 459q142 3 224 4q84 1 157 0t82 -5q29 -7 29 -21q-3 -153 -3 -278q0 -160 3 -277q0 -18 -12 -18q-21 -3 -42 -3t-42 3q-5 0 -9.5 6.5t-3.5 11.5q0 28 1.5 84t1.5 84q-198 -15 -431 -41q-17 -2 -17 11q-22 99 -21 212q2 112 17 213q2 13 29 14h37zM426 146l51 6
q26 3 53 6q0 32 -1 96.5t-1 96.5q-18 0 -52 1h-51q-6 -47 -6 -96q0 -54 7 -110z" />
    <glyph glyph-name="r" unicode="r" 
d="M612 488q38 -113 29 -266q-2 -43 -38 -47q-70 -7 -143 -8q-74 -2 -148 9q-27 4 -26 35q3 80 -5 142l-57 -8q-28 -4 -55 -7q-3 -135 2 -303q1 -13 -13 -13q-21 -3 -42 -3t-42 3q-15 0 -13 13q3 96 4 193q0 97 -4 195q-2 13 25 15q317 29 508 60q14 2 18 -10z" />
    <glyph glyph-name="s" unicode="s" horiz-adv-x="715" 
d="M84 487q0 12 16 11q258 -9 513 0q12 0 17 -12q2 -20 2 -40t-2 -40q-4 -12 -17 -12q-46 0 -92 1l-91 2q-6 -51 -9 -102q121 3 218 -3q16 -1 16 -13q0 -157 -14 -266q-4 -12 -17 -12q-157 2 -263 3q-141 0 -262 -3q-15 0 -17 11q-8 38 0 81q4 12 17 12l96 -3q47 -1 95 -1
q4 48 6 96q-34 0 -102.5 -1t-102.5 -1q-14 -2 -17 10q-13 62 -8 140q5 76 18 142z" />
    <glyph glyph-name="t" unicode="t" horiz-adv-x="683" 
d="M131 -12q-3 -3 -7 -3q-10 0 -28.5 16t-18.5 26q0 3 2 5q-13 138 -13 280q0 115 13 281q1 17 18 18q161 8 324 0q20 -1 18 -18q-12 -98 -15 -163q48 0 95 1l95 2q16 0 16 -13q2 -21 2 -42t-2 -41q0 -14 -16 -14q-22 0 -97 2q-60 2 -96 2q-2 -104 9 -208l89 8q45 4 90 10
q13 0 17 -12q7 -39 7 -83q-1 -14 -15 -15q-243 -12 -487 -39z" />
    <glyph glyph-name="u" unicode="u" horiz-adv-x="696" 
d="M417 459q18 -1 18 -12q-6 -89 -6 -148q-2 -75 2 -150l98 12q0 139 -4 284q-1 13 12 13q21 3 43 3q21 0 44 -3q11 0 11 -13q-6 -214 0 -428q0 -14 -13 -14q-22 -2 -43 -2q-20 0 -40 2q-15 0 -14 14q0 26 1 36q-227 -18 -429 -42q-15 -2 -17 11q-22 93 -14 212q8 115 8 213
q0 11 18 12q103 3 162 4q66 0 163 -4z" />
    <glyph glyph-name="v" unicode="v" horiz-adv-x="686" 
d="M316 459q69 4 163 4q106 -1 162 -4q17 -1 13 -14q-44 -141 -139 -421q-5 -13 -22 -14q-54 -2 -171 -5q-88 -3 -170 6q-14 0 -15 14q-51 226 -101 427q-3 14 7 14q20 3 42 3q21 0 44 -3q12 0 16 -14q24 -128 63 -282q50 142 86 275q4 13 22 14z" />
    <glyph glyph-name="w" unicode="w" horiz-adv-x="1204" 
d="M324 459q49 3 162 10q40 3 74 3q50 0 91 -6q12 0 16 -14q27 -141 63 -282q45 129 85 275q4 13 23 14q69 4 163 4q106 -1 162 -4q17 -1 13 -14q-44 -141 -139 -421q-5 -13 -23 -14q-57 -2 -170 -5q-88 -3 -170 6q-13 0 -16 14q-26 118 -54 240q-33 -105 -81 -241
q-5 -13 -22 -14q-57 -2 -170 -5q-88 -3 -170 6q-15 0 -16 14q-51 226 -101 427q-3 14 8 14q20 3 41 3t44 -3q13 0 16 -14q25 -128 63 -282q50 142 86 275q4 13 22 14z" />
    <glyph glyph-name="x" unicode="x" horiz-adv-x="774" 
d="M372 459q84 4 184 4q100 -1 178 -4q10 -1 10 -7q0 -3 -2 -7q-66 -93 -200 -279l87 -71q53 -43 82 -70q15 -14 1 -14q-53 -8 -138 -6q-13 0 -26 13q-23 22 -68 62q-14 -19 -42 -56q-10 -13 -28 -14q-76 -3 -184 -3q-106 0 -178 3q-18 1 -8 14q94 121 190 255
q-100 76 -176 147q-14 13 -3 13q18 4 69 6q43 2 77 0q13 -1 32 -18q14 -13 29.5 -28t33.5 -31q26 38 52 77q7 11 28 14z" />
    <glyph glyph-name="y" unicode="y" horiz-adv-x="694" 
d="M422 456q19 -1 18 -12q-18 -93 -18 -185q0 -57 7 -113q53 4 103 12q0 139 -4 279q-2 13 12 18q21 3 43 3t43 -3q11 -5 11 -18q-3 -115 -3 -279q0 -121 3 -277q0 -16 -21 -19q-4 -1 -34 -1q-105 0 -208 1q-93 1 -207 -2q-14 0 -14 13q-3 21 -3 42t3 42q0 14 14 13
q190 -7 363 -3q0 14 1 42v41q-228 -18 -430 -42q-14 -2 -17 11q-22 97 -21 212q1 106 16 213q2 11 18 12q102 3 163 4q65 0 162 -4z" />
    <glyph glyph-name="z" unicode="z" horiz-adv-x="682" 
d="M632 456q15 -1 11 -14q-73 -162 -180 -334q45 0 119 3q15 1 15 -14q2 -21 2 -42t-2 -41q0 -13 -15 -13q-139 3 -264 0q-139 -4 -265 0q-20 1 -10 14q143 194 210 341q-27 0 -80.5 -1t-80.5 -1q-14 0 -16 11q-9 42 0 86q3 14 16 13q80 -3 270 -3q173 1 270 -5z" />
    <glyph glyph-name="Agrave" unicode="&#xc0;" 
d="M132 3q-8 -1 -32 0q-25 0 -27 11q-16 87 -15 185q1 97 20 185q4 12 17 11l215 -23q107 -11 215 -18q-1 16 -1 49q-190 31 -368 48q-13 1 -13 15q1 43 12 83q4 13 16 11q228 -38 432 -60q12 0 21 -18.5t8 -31.5q-7 -213 0 -430q0 -10 -11.5 -14t-24.5 -4q-121 4 -233 1
q-58 -1 -116 -1q-57 0 -115 1zM525 110q0 23 1 68v68l-103 12q-7 -45 -7 -90q0 -29 3 -59q18 0 53 1h53zM284 793q9 6 18 -3q26 -25 27 -29v0q2 -3 28 -28q15 -12 90 -77q12 -11 3 -19q-20 -28 -54 -58q-10 -9 -20 1q-13 13 -85 81l-29 27v0v0v0q-4 3 -30 26q-10 9 -4 19
q22 36 56 60z" />
    <glyph glyph-name="Aacute" unicode="&#xc1;" 
d="M132 3q-8 -1 -32 0q-25 0 -27 11q-16 87 -15 185q1 97 20 185q4 12 17 11l215 -23q107 -11 215 -18q-1 16 -1 49q-190 31 -368 48q-13 1 -13 15q1 43 12 83q4 13 16 11q228 -38 432 -60q12 0 21 -18.5t8 -31.5q-7 -213 0 -430q0 -10 -11.5 -14t-24.5 -4q-121 4 -233 1
q-58 -1 -116 -1q-57 0 -115 1zM525 110q0 23 1 68v68l-103 12q-7 -45 -7 -90q0 -29 3 -59q18 0 53 1h53zM491 807q-9 5 -18 -3q-26 -26 -27 -29h1q-3 -3 -29 -28q-14 -12 -90 -77q-12 -11 -3 -19q20 -28 54 -59q10 -9 21.5 3t83.5 80l29 27v0v0v0q4 3 30 26q11 9 4 19
q-22 36 -56 60z" />
    <glyph glyph-name="Acircumflex" unicode="&#xc2;" 
d="M132 3q-8 -1 -32 0q-25 0 -27 11q-16 87 -15 185q1 97 20 185q4 12 17 11l215 -23q107 -11 215 -18q-1 16 -1 49q-190 31 -368 48q-13 1 -13 15q1 43 12 83q4 13 16 11q228 -38 432 -60q12 0 21 -18.5t8 -31.5q-7 -213 0 -430q0 -10 -11.5 -14t-24.5 -4q-121 4 -233 1
q-58 -1 -116 -1q-57 0 -115 1zM525 110q0 23 1 68v68l-103 12q-7 -45 -7 -90q0 -29 3 -59q18 0 53 1h53zM341 691q-21 -37 -24 -46q-4 -14 -25 -53q-7 -14 -20 -2q-34 31 -54 59q-9 8 4.5 19t88.5 77q28 26 29 28h-1q2 4 27 29q9 8 18 3q33 -23 54 -57l14 -13q15 -12 90 -77
q12 -11 3 -19q-20 -28 -54 -58q-13 -13 -18.5 1t-50.5 99q-8 13 -28 21q-9 4 -19 7l-12 -2q-14 -3 -22 -16z" />
    <glyph glyph-name="Atilde" unicode="&#xc3;" 
d="M132 3q-8 -1 -32 0q-25 0 -27 11q-16 87 -15 185q1 97 20 185q4 12 17 11l215 -23q107 -11 215 -18q-1 16 -1 49q-190 31 -368 48q-13 1 -13 15q1 43 12 83q4 13 16 11q228 -38 432 -60q12 0 21 -18.5t8 -31.5q-7 -213 0 -430q0 -10 -11.5 -14t-24.5 -4q-121 4 -233 1
q-58 -1 -116 -1q-57 0 -115 1zM525 110q0 23 1 68v68l-103 12q-7 -45 -7 -90q0 -29 3 -59q18 0 53 1h53zM119 714q3 10 16 10q97 -3 241 -2q131 0 243 3q8 0 11.5 -3t3.5 -9q5 -31 1 -78q-2 -14 -16 -13q-104 3 -242 3q-105 0 -242 -4q-14 -1 -16 11q-8 41 0 82z" />
    <glyph glyph-name="Adieresis" unicode="&#xc4;" 
d="M132 3q-8 -1 -32 0q-25 0 -27 11q-16 87 -15 185q1 97 20 185q4 12 17 11l215 -23q107 -11 215 -18q-1 16 -1 49q-190 31 -368 48q-13 1 -13 15q1 43 12 83q4 13 16 11q228 -38 432 -60q12 0 21 -18.5t8 -31.5q-7 -213 0 -430q0 -10 -11.5 -14t-24.5 -4q-121 4 -233 1
q-58 -1 -116 -1q-57 0 -115 1zM525 110q0 23 1 68v68l-103 12q-7 -45 -7 -90q0 -29 3 -59q18 0 53 1h53zM240 711q58 2 52 3q-3 0 44 -2q17 -1 16 -12q-1 -6 -2 -3v3q1 -1 1 -15q1 -47 3 -68q1 -11 -16 -12q-46 -1 -49 -3h1q-3 0 -48 2q-16 0 -16.5 11.5t-0.5 26.5
q0 18 2 42q1 13 0 13q1 -1 -1 -4q-1 -2 -2 6q-4 11 16 12zM422 710q58 2 52 3q-3 0 44 -2q17 -1 16 -12q-1 -6 -2 -3v3q1 -1 1 -15q1 -47 3 -68q1 -11 -16 -12q-46 -1 -49 -3h1q-3 0 -48 2q-16 0 -16.5 11.5t-0.5 26.5q0 18 2 42q1 13 0 13q1 -1 -1 -4q-1 -2 -2 6
q-4 11 16 12z" />
    <glyph glyph-name="Aring" unicode="&#xc5;" 
d="M132 3q-8 -1 -32 0q-25 0 -27 11q-16 87 -15 185q1 97 20 185q4 12 17 11l215 -23q107 -11 215 -18q-1 16 -1 49q-190 31 -368 48q-13 1 -13 15q1 43 12 83q4 13 16 11q228 -38 432 -60q12 0 21 -18.5t8 -31.5q-7 -213 0 -430q0 -10 -11.5 -14t-24.5 -4q-121 4 -233 1
q-58 -1 -116 -1q-57 0 -115 1zM525 110q0 23 1 68v68l-103 12q-7 -45 -7 -90q0 -29 3 -59q18 0 53 1h53zM242 754q58 2 52 2q56 -2 162 -6q17 -1 16 -12q-1 -7 -2 -4v4q1 -2 1 -15q0 -49 1 -111q1 -11 -16 -12q-41 -1 -214 4q-16 0 -16 12q-4 31 3 111q1 12 0 12q1 -1 -1 -3
q-1 -2 -2 6q-4 11 16 12zM329 700q-10 0 -8 -6q1 -4 1 -3q1 1 1 2l-1 -6q0 -7 3 -34q0 -6 8 -6q7 0 48 1q9 1 8 6q-2 9 -4 34q-1 4 0 7q0 6 -8 6q2 0 -22 0q3 0 -26 -1z" />
    <glyph glyph-name="AE" unicode="&#xc6;" horiz-adv-x="1133" 
d="M525 110q0 23 1 68v68l-103 12q-7 -45 -7 -90q0 -29 3 -59q18 0 53 1h53zM1091 458q14 -65 16 -129q1 -65 -16 -128q-3 -11 -34 -10q-112 2 -209 3q-105 0 -209 -2v-32q0 -16 1 -31q165 0 362 11q4 0 9 -4.5t5 -8.5q5 -42 3 -84q-5 -13 -14 -13q-187 0 -373 -7v-3
q0 -10 -11.5 -14t-24.5 -4q-121 4 -233 1q-58 -1 -116 -1q-57 0 -115 1q-8 -1 -32 0q-25 0 -27 11q-16 87 -15 185q1 97 20 185q4 12 17 11l215 -23q107 -11 215 -18q-1 16 -1 49q-190 31 -368 48q-13 1 -13 15q1 43 12 83q4 13 16 11q228 -38 432 -60q11 0 19 -14
q222 -7 435 2q7 0 21.5 -14.5t12.5 -15.5zM640 379q-1 -21 -1 -40v-40q54 -2 108 -2q2 39 -2 84q-54 -2 -105 -2z" />
    <glyph glyph-name="Ccedilla" unicode="&#xc7;" horiz-adv-x="680" 
d="M122 464q238 -9 489 0q10 0 16 -14q2 -21 2 -41q0 -21 -2 -42q-5 -13 -16 -13q-47 0 -94 1l-93 2q-8 -64 -8 -129q0 -60 7 -121q69 0 188 4q10 0 16 -14q2 -21 2 -42t-2 -41q-6 -13 -16 -13q-76 2 -151 2q31 -73 33 -76q15 -43 16 -81q0 -29 -4 -83q1 -11 -17 -11
q-98 -2 -150 -1q-58 0 -150 6q-18 1 -16 12q4 24 1.5 71t0.5 69q1 11 17 12q105 3 190 0q-14 28 -25 51l-15 32q-99 0 -219 -3q-46 -1 -47 16q-12 107 -13 209q0 104 13 209q-2 1 -2 3q0 6 16 16q21 13 33 10z" />
    <glyph glyph-name="Egrave" unicode="&#xc8;" horiz-adv-x="675" 
d="M619 434q14 -65 16 -129q1 -65 -16 -128q-3 -11 -34 -10q-112 2 -209 3q-105 0 -209 -2v-32q0 -16 1 -31q165 0 362 11q5 0 9.5 -4.5t4.5 -8.5q5 -42 3 -84q-5 -13 -14 -13q-219 0 -437 -10q-3 -2 -7 -2q-9 0 -19.5 7t-8.5 16q2 102 3 205q0 102 -3 204q-1 1 -1 2
q0 5 13 20q16 19 24 16q250 -10 488 0q7 0 21.5 -14.5t12.5 -15.5zM168 355q-1 -21 -1 -40v-40q54 -2 108 -2q2 39 -2 84q-54 -2 -105 -2zM266 742q9 5 18 -4q26 -25 27 -28l-1 -1q3 -3 29 -27q14 -12 90 -78q12 -10 3 -19q-20 -27 -54 -58q-10 -9 -20 1q-13 14 -85 82
l-29 27v0v0v0q-4 3 -30 25q-11 10 -4 20q22 35 56 60z" />
    <glyph glyph-name="Eacute" unicode="&#xc9;" horiz-adv-x="675" 
d="M619 434q14 -65 16 -129q1 -65 -16 -128q-3 -11 -34 -10q-112 2 -209 3q-105 0 -209 -2v-32q0 -16 1 -31q165 0 362 11q5 0 9.5 -4.5t4.5 -8.5q5 -42 3 -84q-5 -13 -14 -13q-219 0 -437 -10q-3 -2 -7 -2q-9 0 -19.5 7t-8.5 16q2 102 3 205q0 102 -3 204q-1 1 -1 2
q0 5 13 20q16 19 24 16q250 -10 488 0q7 0 21.5 -14.5t12.5 -15.5zM168 355q-1 -21 -1 -40v-40q54 -2 108 -2q2 39 -2 84q-54 -2 -105 -2zM435 752q-10 5 -18 -4q-26 -25 -27 -28v-1q-2 -3 -29 -28q-14 -12 -89 -77q-12 -11 -3 -19q19 -28 54 -58q9 -9 21 2.5t84 79.5l28 27
v0v0v0q5 3 31 26q10 9 4 19q-22 36 -56 61z" />
    <glyph glyph-name="Ecircumflex" unicode="&#xca;" horiz-adv-x="675" 
d="M619 434q14 -65 16 -129q1 -65 -16 -128q-3 -11 -34 -10q-112 2 -209 3q-105 0 -209 -2v-32q0 -16 1 -31q165 0 362 11q5 0 9.5 -4.5t4.5 -8.5q5 -42 3 -84q-5 -13 -14 -13q-219 0 -437 -10q-3 -2 -7 -2q-9 0 -19.5 7t-8.5 16q2 102 3 205q0 102 -3 204q-1 1 -1 2
q0 5 13 20q16 19 24 16q250 -10 488 0q7 0 21.5 -14.5t12.5 -15.5zM168 355q-1 -21 -1 -40v-40q54 -2 108 -2q2 39 -2 84q-54 -2 -105 -2zM314 659q-21 -37 -24 -46q-4 -14 -25 -53q-7 -14 -20 -2q-34 31 -54 59q-9 8 4.5 19t88.5 77q28 26 29 28h-1q2 4 27 29q9 8 18 3
q33 -23 54 -57l14 -13q15 -12 90 -77q12 -11 3 -19q-20 -28 -54 -58q-13 -13 -18.5 1t-50.5 99q-8 13 -28 21q-9 4 -19 7l-12 -2q-14 -3 -22 -16z" />
    <glyph glyph-name="Edieresis" unicode="&#xcb;" horiz-adv-x="675" 
d="M619 434q14 -65 16 -129q1 -65 -16 -128q-3 -11 -34 -10q-112 2 -209 3q-105 0 -209 -2v-32q0 -16 1 -31q165 0 362 11q5 0 9.5 -4.5t4.5 -8.5q5 -42 3 -84q-5 -13 -14 -13q-219 0 -437 -10q-3 -2 -7 -2q-9 0 -19.5 7t-8.5 16q2 102 3 205q0 102 -3 204q-1 1 -1 2
q0 5 13 20q16 19 24 16q250 -10 488 0q7 0 21.5 -14.5t12.5 -15.5zM168 355q-1 -21 -1 -40v-40q54 -2 108 -2q2 39 -2 84q-54 -2 -105 -2zM225 696q58 2 52 3q-3 0 44 -2q17 -1 16 -12q-1 -6 -2 -3v3q1 -1 1 -15q1 -47 3 -68q1 -11 -16 -12q-46 -1 -49 -3h1q-3 0 -48 2
q-16 0 -16.5 11.5t-0.5 26.5q0 18 2 42q1 13 0 13q1 -1 -1 -4q-1 -2 -2 6q-4 11 16 12zM407 695q58 2 52 3q-3 0 44 -2q17 -1 16 -12q-1 -6 -2 -3v3q1 -1 1 -15q1 -47 3 -68q1 -11 -16 -12q-46 -1 -49 -3h1q-3 0 -48 2q-16 0 -16.5 11.5t-0.5 26.5q0 18 2 42q1 13 0 13
q1 -1 -1 -4q-1 -2 -2 6q-4 11 16 12z" />
    <glyph glyph-name="Igrave" unicode="&#xcc;" horiz-adv-x="498" 
d="M94 484q67 4 163 4q106 -1 162 -4q19 -1 18 -15q-6 -126 -6 -226q0 -99 6 -225q1 -14 -18 -15q-177 -5 -325 0q-19 1 -18 15q9 225 0 451q-1 14 18 15zM186 772q9 5 18 -4q26 -25 27 -28l-1 -1q3 -3 29 -27q14 -12 90 -78q12 -10 3 -19q-20 -27 -54 -58q-10 -9 -20 1
q-13 14 -85 82l-29 27v0v0v0q-4 3 -30 25q-11 10 -4 20q22 35 56 60z" />
    <glyph glyph-name="Iacute" unicode="&#xcd;" horiz-adv-x="498" 
d="M94 484q67 4 163 4q106 -1 162 -4q19 -1 18 -15q-6 -126 -6 -226q0 -99 6 -225q1 -14 -18 -15q-177 -5 -325 0q-19 1 -18 15q9 225 0 451q-1 14 18 15zM348 779q-10 5 -18 -4q-26 -25 -27 -28v-1q-2 -3 -29 -28q-14 -12 -89 -77q-12 -11 -3 -19q19 -28 54 -58
q9 -9 21 2.5t84 79.5l28 27v0v0v0q5 3 31 26q10 9 4 19q-22 36 -56 61z" />
    <glyph glyph-name="Icircumflex" unicode="&#xce;" horiz-adv-x="498" 
d="M94 484q67 4 163 4q106 -1 162 -4q19 -1 18 -15q-6 -126 -6 -226q0 -99 6 -225q1 -14 -18 -15q-177 -5 -325 0q-19 1 -18 15q9 225 0 451q-1 14 18 15zM215 646q-21 -37 -24 -46q-4 -14 -25 -53q-7 -14 -20 -2q-34 31 -54 59q-9 8 4.5 19t88.5 77q28 26 29 28h-1
q2 4 27 29q9 8 18 3q33 -23 54 -57l14 -13q15 -12 90 -77q12 -11 3 -19q-20 -28 -54 -58q-13 -13 -18.5 1t-50.5 99q-8 13 -28 21q-9 4 -19 7l-12 -2q-14 -3 -22 -16z" />
    <glyph glyph-name="Idieresis" unicode="&#xcf;" horiz-adv-x="498" 
d="M94 484q67 4 163 4q106 -1 162 -4q19 -1 18 -15q-6 -126 -6 -226q0 -99 6 -225q1 -14 -18 -15q-177 -5 -325 0q-19 1 -18 15q9 225 0 451q-1 14 18 15zM109 677q58 2 52 3q-3 0 44 -2q17 -1 16 -12q-1 -6 -2 -3v3q1 -1 1 -15q1 -47 3 -68q1 -11 -16 -12q-46 -1 -49 -3h1
q-3 0 -48 2q-16 0 -16.5 11.5t-0.5 26.5q0 18 2 42q1 13 0 13q1 -1 -1 -4q-1 -2 -2 6q-4 11 16 12zM291 676q58 2 52 3q-3 0 44 -2q17 -1 16 -12q-1 -6 -2 -3v3q1 -1 1 -15q1 -47 3 -68q1 -11 -16 -12q-46 -1 -49 -3h1q-3 0 -48 2q-16 0 -16.5 11.5t-0.5 26.5q0 18 2 42
q1 13 0 13q1 -1 -1 -4q-1 -2 -2 6q-4 11 16 12z" />
    <glyph glyph-name="Eth" unicode="&#xd0;" horiz-adv-x="695" 
d="M146 3q-64 0 -66 14q-15 99 -17 212q-1 112 21 213q0 13 17 11q235 -28 431 -42q0 28 -1.5 85t-1.5 85q-2 13 13 18q21 3 42 3t42 -3q12 -5 12 -18q-3 -115 -3 -279q0 -124 3 -277q0 -21 -29 -21q-9 -4 -82 -5t-157 0t-154 3zM429 315q-7 -56 -7 -110q0 -49 6 -96
q17 0 51 1h52q0 32 1 96.5t1 96.5q-54 7 -104 12z" />
    <glyph glyph-name="Ntilde" unicode="&#xd1;" horiz-adv-x="679" 
d="M279 5q-20 1 -18 12q4 72 6 147q1 75 -2 151l-98 -12q-2 -141 4 -284q1 -13 -13 -13q-22 -4 -43 -4t-43 4q-11 0 -11 13q3 118 3 214q-1 87 -3 214q0 14 12 14q21 2 42 2t42 -2q14 0 14 -14q-2 -18 -2 -36q204 15 430 42q12 1 17 -11q15 -71 15 -151q0 -30 -2 -62
q-8 -115 -8 -212q0 -11 -18 -12q-161 -6 -324 0z" />
    <glyph glyph-name="Ograve" unicode="&#xd2;" horiz-adv-x="685" 
d="M571 464q4 3 9 3q10 0 22 -9q19 -15 16 -23q12 -105 11 -209q-1 -112 -11 -209q-1 -15 -41 -15l-495 -1q-9 0 -20 5t-10 13q3 107 3 214q-1 107 -3 214q-1 8 10 12.5t20 4.5q247 -10 489 0zM159 355q-1 -61 -1 -123q0 -61 1 -123q54 -2 110 -2q6 57 6 117q0 65 -7 133
q-54 -2 -109 -2zM248 777q9 5 18 -4q26 -25 27 -28l-1 -1q3 -3 29 -27q14 -12 90 -78q12 -10 3 -19q-20 -27 -54 -58q-10 -9 -20 1q-13 14 -85 82l-29 27v0v0v0q-4 3 -30 25q-11 10 -4 20q22 35 56 60z" />
    <glyph glyph-name="Oacute" unicode="&#xd3;" horiz-adv-x="685" 
d="M571 464q4 3 9 3q10 0 22 -9q19 -15 16 -23q12 -105 11 -209q-1 -112 -11 -209q-1 -15 -41 -15l-495 -1q-9 0 -20 5t-10 13q3 107 3 214q-1 107 -3 214q-1 8 10 12.5t20 4.5q247 -10 489 0zM159 355q-1 -61 -1 -123q0 -61 1 -123q54 -2 110 -2q6 57 6 117q0 65 -7 133
q-54 -2 -109 -2zM407 759q-10 5 -18 -4q-26 -25 -27 -28v-1q-2 -3 -29 -28q-14 -12 -89 -77q-12 -11 -3 -19q19 -28 54 -58q9 -9 21 2.5t84 79.5l28 27v0v0v0q5 3 31 26q10 9 4 19q-22 36 -56 61z" />
    <glyph glyph-name="Ocircumflex" unicode="&#xd4;" horiz-adv-x="685" 
d="M571 464q4 3 9 3q10 0 22 -9q19 -15 16 -23q12 -105 11 -209q-1 -112 -11 -209q-1 -15 -41 -15l-495 -1q-9 0 -20 5t-10 13q3 107 3 214q-1 107 -3 214q-1 8 10 12.5t20 4.5q247 -10 489 0zM159 355q-1 -61 -1 -123q0 -61 1 -123q54 -2 110 -2q6 57 6 117q0 65 -7 133
q-54 -2 -109 -2zM272 636q-21 -37 -24 -46q-4 -14 -25 -53q-7 -14 -20 -2q-34 31 -54 59q-9 8 4.5 19t88.5 77q28 26 29 28h-1q2 4 27 29q9 8 18 3q33 -23 54 -57l14 -13q15 -12 90 -77q12 -11 3 -19q-20 -28 -54 -58q-13 -13 -18.5 1t-50.5 99q-8 13 -28 21q-9 4 -19 7
l-12 -2q-14 -3 -22 -16z" />
    <glyph glyph-name="Otilde" unicode="&#xd5;" horiz-adv-x="685" 
d="M571 464q4 3 9 3q10 0 22 -9q19 -15 16 -23q12 -105 11 -209q-1 -112 -11 -209q-1 -15 -41 -15l-495 -1q-9 0 -20 5t-10 13q3 107 3 214q-1 107 -3 214q-1 8 10 12.5t20 4.5q247 -10 489 0zM159 355q-1 -61 -1 -123q0 -61 1 -123q54 -2 110 -2q6 57 6 117q0 65 -7 133
q-54 -2 -109 -2z" />
    <glyph glyph-name="Odieresis" unicode="&#xd6;" horiz-adv-x="685" 
d="M571 464q4 3 9 3q10 0 22 -9q19 -15 16 -23q12 -105 11 -209q-1 -112 -11 -209q-1 -15 -41 -15l-495 -1q-9 0 -20 5t-10 13q3 107 3 214q-1 107 -3 214q-1 8 10 12.5t20 4.5q247 -10 489 0zM159 355q-1 -61 -1 -123q0 -61 1 -123q54 -2 110 -2q6 57 6 117q0 65 -7 133
q-54 -2 -109 -2zM213 704q58 2 52 3q-3 0 44 -2q17 -1 16 -12q-1 -6 -2 -3v3q1 -1 1 -15q1 -47 3 -68q1 -11 -16 -12q-46 -1 -49 -3h1q-3 0 -48 2q-16 0 -16.5 11.5t-0.5 26.5q0 18 2 42q1 13 0 13q1 -1 -1 -4q-1 -2 -2 6q-4 11 16 12zM395 703q58 2 52 3q-3 0 44 -2
q17 -1 16 -12q-1 -6 -2 -3v3q1 -1 1 -15q1 -47 3 -68q1 -11 -16 -12q-46 -1 -49 -3h1q-3 0 -48 2q-16 0 -16.5 11.5t-0.5 26.5q0 18 2 42q1 13 0 13q1 -1 -1 -4q-1 -2 -2 6q-4 11 16 12z" />
    <glyph glyph-name="multiply" unicode="&#xd7;" horiz-adv-x="580" 
d="M433 41q-10 -5 -19 4q-58 59 -133 131q-67 -73 -123 -137q-11 -12 -19 -3q-28 19 -59 53q-9 10 2 21q56 57 128 134q-78 74 -145 136q-12 10 -3 19q20 27 55 57q10 9 20 -2q59 -59 140 -138q75 81 133 148q10 11 20 5q35 -23 60 -56q5 -10 -4 -19q-61 -63 -139 -146
q75 -71 139 -128q10 -10 4 -20q-23 -35 -57 -59z" />
    <glyph glyph-name="Oslash" unicode="&#xd8;" horiz-adv-x="685" 
d="M158 213q50 74 96 144q-47 -2 -95 -2q-2 -67 -1 -142zM275 202l-63 -94h2q28 -1 55 -1q5 47 6 95zM505 561q8 -9 -6 -29l-49 -72q60 2 121 4q4 3 9 3q10 0 22 -9q19 -15 16 -23q12 -105 11 -209q-1 -112 -11 -209q-1 -15 -41 -15l-435 -1l-49 -74q-13 -21 -25 -16
q-38 15 -69 46q-8 14 4 31l50 73q2 86 2 172q-1 107 -3 214q-1 8 10 12.5t20 4.5q121 -5 240 -5q40 62 86 134q13 20 25 16q42 -14 72 -48z" />
    <glyph glyph-name="Ugrave" unicode="&#xd9;" horiz-adv-x="696" 
d="M417 459q18 -1 18 -12q-6 -89 -6 -148q-1 -75 2 -150l98 12q0 139 -4 284q-1 13 12 13q21 3 43 3q21 0 44 -3q11 0 11 -13q-6 -214 0 -428q0 -14 -13 -14q-22 -2 -43 -2q-20 0 -40 2q-15 0 -14 14q0 26 1 36q-227 -18 -429 -42q-15 -2 -17 11q-22 93 -14 212q8 115 8 213
q0 11 18 12q103 3 162 4q66 0 163 -4zM278 758q9 5 18 -4q26 -25 27 -28l-1 -1q3 -3 29 -27q14 -12 90 -78q12 -10 3 -19q-20 -27 -54 -58q-10 -9 -20 1q-13 14 -85 82l-29 27v0v0v0q-4 3 -30 25q-11 10 -4 20q22 35 56 60z" />
    <glyph glyph-name="Uacute" unicode="&#xda;" horiz-adv-x="696" 
d="M417 459q18 -1 18 -12q-6 -89 -6 -148q-1 -75 2 -150l98 12q0 139 -4 284q-1 13 12 13q21 3 43 3q21 0 44 -3q11 0 11 -13q-6 -214 0 -428q0 -14 -13 -14q-22 -2 -43 -2q-20 0 -40 2q-15 0 -14 14q0 26 1 36q-227 -18 -429 -42q-15 -2 -17 11q-22 93 -14 212q8 115 8 213
q0 11 18 12q103 3 162 4q66 0 163 -4zM443 757q-10 5 -18 -4q-26 -25 -27 -28v-1q-2 -3 -29 -28q-14 -12 -89 -77q-12 -11 -3 -19q19 -28 54 -58q9 -9 21 2.5t84 79.5l28 27v0v0v0q5 3 31 26q10 9 4 19q-22 36 -56 61z" />
    <glyph glyph-name="Ucircumflex" unicode="&#xdb;" horiz-adv-x="696" 
d="M417 459q18 -1 18 -12q-6 -89 -6 -148q-1 -75 2 -150l98 12q0 139 -4 284q-1 13 12 13q21 3 43 3q21 0 44 -3q11 0 11 -13q-6 -214 0 -428q0 -14 -13 -14q-22 -2 -43 -2q-20 0 -40 2q-15 0 -14 14q0 26 1 36q-227 -18 -429 -42q-15 -2 -17 11q-22 93 -14 212q8 115 8 213
q0 11 18 12q103 3 162 4q66 0 163 -4zM309 645q-21 -37 -24 -46q-4 -14 -25 -53q-7 -14 -20 -2q-34 31 -54 59q-9 8 4.5 19t88.5 77q28 26 29 28h-1q2 4 27 29q9 8 18 3q33 -23 54 -57l14 -13q15 -12 90 -77q12 -11 3 -19q-20 -28 -54 -58q-13 -13 -18.5 1t-50.5 99
q-8 13 -28 21q-9 4 -19 7l-12 -2q-14 -3 -22 -16z" />
    <glyph glyph-name="Udieresis" unicode="&#xdc;" horiz-adv-x="696" 
d="M417 459q18 -1 18 -12q-6 -89 -6 -148q-1 -75 2 -150l98 12q0 139 -4 284q-1 13 12 13q21 3 43 3q21 0 44 -3q11 0 11 -13q-6 -214 0 -428q0 -14 -13 -14q-22 -2 -43 -2q-20 0 -40 2q-15 0 -14 14q0 26 1 36q-227 -18 -429 -42q-15 -2 -17 11q-22 93 -14 212q8 115 8 213
q0 11 18 12q103 3 162 4q66 0 163 -4zM239 701q58 2 52 3q-3 0 44 -2q17 -1 16 -12q-1 -6 -2 -3v3q1 -1 1 -15q1 -47 3 -68q1 -11 -16 -12q-46 -1 -49 -3h1q-3 0 -48 2q-16 0 -16.5 11.5t-0.5 26.5q0 18 2 42q1 13 0 13q1 -1 -1 -4q-1 -2 -2 6q-4 11 16 12zM421 700
q58 2 52 3q-3 0 44 -2q17 -1 16 -12q-1 -6 -2 -3v3q1 -1 1 -15q1 -47 3 -68q1 -11 -16 -12q-46 -1 -49 -3h1q-3 0 -48 2q-16 0 -16.5 11.5t-0.5 26.5q0 18 2 42q1 13 0 13q1 -1 -1 -4q-1 -2 -2 6q-4 11 16 12z" />
    <glyph glyph-name="Yacute" unicode="&#xdd;" horiz-adv-x="694" 
d="M422 456q19 -1 18 -12q-18 -93 -18 -185q0 -57 7 -113q53 4 103 12q0 139 -4 279q-2 13 12 18q21 3 43 3t43 -3q11 -5 11 -18q-3 -115 -3 -279q0 -121 3 -277q0 -16 -21 -19q-4 -1 -34 -1q-105 0 -208 1q-93 1 -207 -2q-14 0 -14 13q-3 21 -3 42t3 42q0 14 14 13
q190 -7 363 -3q0 14 1 42v41q-228 -18 -430 -42q-14 -2 -17 11q-22 97 -21 212q1 106 16 213q2 11 18 12q102 3 163 4q65 0 162 -4zM442 750q-10 5 -18 -4q-26 -25 -27 -28v-1q-2 -3 -29 -28q-14 -12 -89 -77q-12 -11 -3 -19q19 -28 54 -58q9 -9 21 2.5t84 79.5l28 27v0v0v0
q5 3 31 26q10 9 4 19q-22 36 -56 61z" />
    <glyph glyph-name="agrave" unicode="&#xe0;" 
d="M132 3q-8 -1 -32 0q-25 0 -27 11q-16 87 -15 185q1 97 20 185q4 12 17 11l215 -23q107 -11 215 -18q-1 16 -1 49q-190 31 -368 48q-13 1 -13 15q1 43 12 83q4 13 16 11q228 -38 432 -60q12 0 21 -18.5t8 -31.5q-7 -213 0 -430q0 -10 -11.5 -14t-24.5 -4q-121 4 -233 1
q-58 -1 -116 -1q-57 0 -115 1zM525 110q0 23 1 68v68l-103 12q-7 -45 -7 -90q0 -29 3 -59q18 0 53 1h53zM284 793q9 6 18 -3q26 -25 27 -29v0q2 -3 28 -28q15 -12 90 -77q12 -11 3 -19q-20 -28 -54 -58q-10 -9 -20 1q-13 13 -85 81l-29 27v0v0v0q-4 3 -30 26q-10 9 -4 19
q22 36 56 60z" />
    <glyph glyph-name="aacute" unicode="&#xe1;" 
d="M132 3q-8 -1 -32 0q-25 0 -27 11q-16 87 -15 185q1 97 20 185q4 12 17 11l215 -23q107 -11 215 -18q-1 16 -1 49q-190 31 -368 48q-13 1 -13 15q1 43 12 83q4 13 16 11q228 -38 432 -60q12 0 21 -18.5t8 -31.5q-7 -213 0 -430q0 -10 -11.5 -14t-24.5 -4q-121 4 -233 1
q-58 -1 -116 -1q-57 0 -115 1zM525 110q0 23 1 68v68l-103 12q-7 -45 -7 -90q0 -29 3 -59q18 0 53 1h53zM491 807q-9 5 -18 -3q-26 -26 -27 -29h1q-3 -3 -29 -28q-14 -12 -90 -77q-12 -11 -3 -19q20 -28 54 -59q10 -9 21.5 3t83.5 80l29 27v0v0v0q4 3 30 26q11 9 4 19
q-22 36 -56 60z" />
    <glyph glyph-name="acircumflex" unicode="&#xe2;" 
d="M132 3q-8 -1 -32 0q-25 0 -27 11q-16 87 -15 185q1 97 20 185q4 12 17 11l215 -23q107 -11 215 -18q-1 16 -1 49q-190 31 -368 48q-13 1 -13 15q1 43 12 83q4 13 16 11q228 -38 432 -60q12 0 21 -18.5t8 -31.5q-7 -213 0 -430q0 -10 -11.5 -14t-24.5 -4q-121 4 -233 1
q-58 -1 -116 -1q-57 0 -115 1zM525 110q0 23 1 68v68l-103 12q-7 -45 -7 -90q0 -29 3 -59q18 0 53 1h53zM341 691q-21 -37 -24 -46q-4 -14 -25 -53q-7 -14 -20 -2q-34 31 -54 59q-9 8 4.5 19t88.5 77q28 26 29 28h-1q2 4 27 29q9 8 18 3q33 -23 54 -57l14 -13q15 -12 90 -77
q12 -11 3 -19q-20 -28 -54 -58q-13 -13 -18.5 1t-50.5 99q-8 13 -28 21q-9 4 -19 7l-12 -2q-14 -3 -22 -16z" />
    <glyph glyph-name="atilde" unicode="&#xe3;" 
d="M132 3q-8 -1 -32 0q-25 0 -27 11q-16 87 -15 185q1 97 20 185q4 12 17 11l215 -23q107 -11 215 -18q-1 16 -1 49q-190 31 -368 48q-13 1 -13 15q1 43 12 83q4 13 16 11q228 -38 432 -60q12 0 21 -18.5t8 -31.5q-7 -213 0 -430q0 -10 -11.5 -14t-24.5 -4q-121 4 -233 1
q-58 -1 -116 -1q-57 0 -115 1zM525 110q0 23 1 68v68l-103 12q-7 -45 -7 -90q0 -29 3 -59q18 0 53 1h53zM119 714q3 10 16 10q97 -3 241 -2q131 0 243 3q8 0 11.5 -3t3.5 -9q5 -31 1 -78q-2 -14 -16 -13q-104 3 -242 3q-105 0 -242 -4q-14 -1 -16 11q-8 41 0 82z" />
    <glyph glyph-name="adieresis" unicode="&#xe4;" 
d="M132 3q-8 -1 -32 0q-25 0 -27 11q-16 87 -15 185q1 97 20 185q4 12 17 11l215 -23q107 -11 215 -18q-1 16 -1 49q-190 31 -368 48q-13 1 -13 15q1 43 12 83q4 13 16 11q228 -38 432 -60q12 0 21 -18.5t8 -31.5q-7 -213 0 -430q0 -10 -11.5 -14t-24.5 -4q-121 4 -233 1
q-58 -1 -116 -1q-57 0 -115 1zM525 110q0 23 1 68v68l-103 12q-7 -45 -7 -90q0 -29 3 -59q18 0 53 1h53zM240 711q58 2 52 3q-3 0 44 -2q17 -1 16 -12q-1 -6 -2 -3v3q1 -1 1 -15q1 -47 3 -68q1 -11 -16 -12q-46 -1 -49 -3h1q-3 0 -48 2q-16 0 -16.5 11.5t-0.5 26.5
q0 18 2 42q1 13 0 13q1 -1 -1 -4q-1 -2 -2 6q-4 11 16 12zM422 710q58 2 52 3q-3 0 44 -2q17 -1 16 -12q-1 -6 -2 -3v3q1 -1 1 -15q1 -47 3 -68q1 -11 -16 -12q-46 -1 -49 -3h1q-3 0 -48 2q-16 0 -16.5 11.5t-0.5 26.5q0 18 2 42q1 13 0 13q1 -1 -1 -4q-1 -2 -2 6
q-4 11 16 12z" />
    <glyph glyph-name="aring" unicode="&#xe5;" 
d="M132 3q-8 -1 -32 0q-25 0 -27 11q-16 87 -15 185q1 97 20 185q4 12 17 11l215 -23q107 -11 215 -18q-1 16 -1 49q-190 31 -368 48q-13 1 -13 15q1 43 12 83q4 13 16 11q228 -38 432 -60q12 0 21 -18.5t8 -31.5q-7 -213 0 -430q0 -10 -11.5 -14t-24.5 -4q-121 4 -233 1
q-58 -1 -116 -1q-57 0 -115 1zM525 110q0 23 1 68v68l-103 12q-7 -45 -7 -90q0 -29 3 -59q18 0 53 1h53zM242 754q58 2 52 2q56 -2 162 -6q17 -1 16 -12q-1 -7 -2 -4v4q1 -2 1 -15q0 -49 1 -111q1 -11 -16 -12q-41 -1 -214 4q-16 0 -16 12q-4 31 3 111q1 12 0 12q1 -1 -1 -3
q-1 -2 -2 6q-4 11 16 12zM329 700q-10 0 -8 -6q1 -4 1 -3q1 1 1 2l-1 -6q0 -7 3 -34q0 -6 8 -6q7 0 48 1q9 1 8 6q-2 9 -4 34q-1 4 0 7q0 6 -8 6q2 0 -22 0q3 0 -26 -1z" />
    <glyph glyph-name="ae" unicode="&#xe6;" horiz-adv-x="1133" 
d="M525 110q0 23 1 68v68l-103 12q-7 -45 -7 -90q0 -29 3 -59q18 0 53 1h53zM1091 458q14 -65 16 -129q1 -65 -16 -128q-3 -11 -34 -10q-112 2 -209 3q-105 0 -209 -2v-32q0 -16 1 -31q165 0 362 11q4 0 9 -4.5t5 -8.5q5 -42 3 -84q-5 -13 -14 -13q-187 0 -373 -7v-3
q0 -10 -11.5 -14t-24.5 -4q-121 4 -233 1q-58 -1 -116 -1q-57 0 -115 1q-8 -1 -32 0q-25 0 -27 11q-16 87 -15 185q1 97 20 185q4 12 17 11l215 -23q107 -11 215 -18q-1 16 -1 49q-190 31 -368 48q-13 1 -13 15q1 43 12 83q4 13 16 11q228 -38 432 -60q11 0 19 -14
q222 -7 435 2q7 0 21.5 -14.5t12.5 -15.5zM640 379q-1 -21 -1 -40v-40q54 -2 108 -2q2 39 -2 84q-54 -2 -105 -2z" />
    <glyph glyph-name="ccedilla" unicode="&#xe7;" horiz-adv-x="680" 
d="M122 464q238 -9 489 0q10 0 16 -14q2 -21 2 -41q0 -21 -2 -42q-5 -13 -16 -13q-47 0 -94 1l-93 2q-8 -64 -8 -129q0 -60 7 -121q69 0 188 4q10 0 16 -14q2 -21 2 -42t-2 -41q-6 -13 -16 -13q-76 2 -151 2q31 -73 33 -76q15 -43 16 -81q0 -29 -4 -83q1 -11 -17 -11
q-98 -2 -150 -1q-58 0 -150 6q-18 1 -16 12q4 24 1.5 71t0.5 69q1 11 17 12q105 3 190 0q-14 28 -25 51l-15 32q-99 0 -219 -3q-46 -1 -47 16q-12 107 -13 209q0 104 13 209q-2 1 -2 3q0 6 16 16q21 13 33 10z" />
    <glyph glyph-name="egrave" unicode="&#xe8;" horiz-adv-x="675" 
d="M619 434q14 -65 16 -129q1 -65 -16 -128q-3 -11 -34 -10q-112 2 -209 3q-105 0 -209 -2v-32q0 -16 1 -31q165 0 362 11q5 0 9.5 -4.5t4.5 -8.5q5 -42 3 -84q-5 -13 -14 -13q-219 0 -437 -10q-3 -2 -7 -2q-6 0 -15 4q-16 8 -13 19q2 102 3 205q0 102 -3 204q-1 1 -1 2
q0 5 13 20q16 19 24 16q250 -10 488 0q7 0 21.5 -14.5t12.5 -15.5zM168 355q-1 -21 -1 -40v-40q54 -2 108 -2q2 39 -2 84q-54 -2 -105 -2zM266 742q9 5 18 -4q26 -25 27 -28l-1 -1q3 -3 29 -27q14 -12 90 -78q12 -10 3 -19q-20 -27 -54 -58q-10 -9 -20 1q-13 14 -85 82
l-29 27v0v0v0q-4 3 -30 25q-11 10 -4 20q22 35 56 60z" />
    <glyph glyph-name="eacute" unicode="&#xe9;" horiz-adv-x="675" 
d="M619 434q14 -65 16 -129q1 -65 -16 -128q-3 -11 -34 -10q-112 2 -209 3q-105 0 -209 -2v-32q0 -16 1 -31q165 0 362 11q5 0 9.5 -4.5t4.5 -8.5q5 -42 3 -84q-5 -13 -14 -13q-219 0 -437 -10q-3 -2 -7 -2q-6 0 -15 4q-16 8 -13 19q2 102 3 205q0 102 -3 204q-1 1 -1 2
q0 5 13 20q16 19 24 16q250 -10 488 0q7 0 21.5 -14.5t12.5 -15.5zM168 355q-1 -21 -1 -40v-40q54 -2 108 -2q2 39 -2 84q-54 -2 -105 -2zM435 752q-10 5 -18 -4q-26 -25 -27 -28v-1q-2 -3 -29 -28q-14 -12 -89 -77q-12 -11 -3 -19q19 -28 54 -58q9 -9 21 2.5t84 79.5l28 27
v0v0v0q5 3 31 26q10 9 4 19q-22 36 -56 61z" />
    <glyph glyph-name="ecircumflex" unicode="&#xea;" horiz-adv-x="675" 
d="M619 434q14 -65 16 -129q1 -65 -16 -128q-3 -11 -34 -10q-112 2 -209 3q-105 0 -209 -2v-32q0 -16 1 -31q165 0 362 11q5 0 9.5 -4.5t4.5 -8.5q5 -42 3 -84q-5 -13 -14 -13q-219 0 -437 -10q-3 -2 -7 -2q-6 0 -15 4q-16 8 -13 19q2 102 3 205q0 102 -3 204q-1 1 -1 2
q0 5 13 20q16 19 24 16q250 -10 488 0q7 0 21.5 -14.5t12.5 -15.5zM168 355q-1 -21 -1 -40v-40q54 -2 108 -2q2 39 -2 84q-54 -2 -105 -2zM314 659q-21 -37 -24 -46q-4 -14 -25 -53q-7 -14 -20 -2q-34 31 -54 59q-9 8 4.5 19t88.5 77q28 26 29 28h-1q2 4 27 29q9 8 18 3
q33 -23 54 -57l14 -13q15 -12 90 -77q12 -11 3 -19q-20 -28 -54 -58q-13 -13 -18.5 1t-50.5 99q-8 13 -28 21q-9 4 -19 7l-12 -2q-14 -3 -22 -16z" />
    <glyph glyph-name="edieresis" unicode="&#xeb;" horiz-adv-x="675" 
d="M619 434q14 -65 16 -129q1 -65 -16 -128q-3 -11 -34 -10q-112 2 -209 3q-105 0 -209 -2v-32q0 -16 1 -31q165 0 362 11q5 0 9.5 -4.5t4.5 -8.5q5 -42 3 -84q-5 -13 -14 -13q-219 0 -437 -10q-3 -2 -7 -2q-6 0 -15 4q-16 8 -13 19q2 102 3 205q0 102 -3 204q-1 1 -1 2
q0 5 13 20q16 19 24 16q250 -10 488 0q7 0 21.5 -14.5t12.5 -15.5zM168 355q-1 -21 -1 -40v-40q54 -2 108 -2q2 39 -2 84q-54 -2 -105 -2zM225 696q58 2 52 3q-3 0 44 -2q17 -1 16 -12q-1 -6 -2 -3v3q1 -1 1 -15q1 -47 3 -68q1 -11 -16 -12q-46 -1 -49 -3h1q-3 0 -48 2
q-16 0 -16.5 11.5t-0.5 26.5q0 18 2 42q1 13 0 13q1 -1 -1 -4q-1 -2 -2 6q-4 11 16 12zM407 695q58 2 52 3q-3 0 44 -2q17 -1 16 -12q-1 -6 -2 -3v3q1 -1 1 -15q1 -47 3 -68q1 -11 -16 -12q-46 -1 -49 -3h1q-3 0 -48 2q-16 0 -16.5 11.5t-0.5 26.5q0 18 2 42q1 13 0 13
q1 -1 -1 -4q-1 -2 -2 6q-4 11 16 12z" />
    <glyph glyph-name="igrave" unicode="&#xec;" horiz-adv-x="498" 
d="M94 484q67 4 163 4q106 -1 162 -4q19 -1 18 -15q-6 -126 -6 -226q0 -99 6 -225q1 -14 -18 -15q-177 -5 -325 0q-19 1 -18 15q9 225 0 451q-1 14 18 15zM186 772q9 5 18 -4q26 -25 27 -28l-1 -1q3 -3 29 -27q14 -12 90 -78q12 -10 3 -19q-20 -27 -54 -58q-10 -9 -20 1
q-13 14 -85 82l-29 27v0v0v0q-4 3 -30 25q-11 10 -4 20q22 35 56 60z" />
    <glyph glyph-name="iacute" unicode="&#xed;" horiz-adv-x="498" 
d="M94 484q67 4 163 4q106 -1 162 -4q19 -1 18 -15q-6 -126 -6 -226q0 -99 6 -225q1 -14 -18 -15q-177 -5 -325 0q-19 1 -18 15q9 225 0 451q-1 14 18 15zM348 779q-10 5 -18 -4q-26 -25 -27 -28v-1q-2 -3 -29 -28q-14 -12 -89 -77q-12 -11 -3 -19q19 -28 54 -58
q9 -9 21 2.5t84 79.5l28 27v0v0v0q5 3 31 26q10 9 4 19q-22 36 -56 61z" />
    <glyph glyph-name="icircumflex" unicode="&#xee;" horiz-adv-x="498" 
d="M94 484q67 4 163 4q106 -1 162 -4q19 -1 18 -15q-6 -126 -6 -226q0 -99 6 -225q1 -14 -18 -15q-177 -5 -325 0q-19 1 -18 15q9 225 0 451q-1 14 18 15zM215 646q-21 -37 -24 -46q-4 -14 -25 -53q-7 -14 -20 -2q-34 31 -54 59q-9 8 4.5 19t88.5 77q28 26 29 28h-1
q2 4 27 29q9 8 18 3q33 -23 54 -57l14 -13q15 -12 90 -77q12 -11 3 -19q-20 -28 -54 -58q-13 -13 -18.5 1t-50.5 99q-8 13 -28 21q-9 4 -19 7l-12 -2q-14 -3 -22 -16z" />
    <glyph glyph-name="idieresis" unicode="&#xef;" horiz-adv-x="498" 
d="M94 484q67 4 163 4q106 -1 162 -4q19 -1 18 -15q-6 -126 -6 -226q0 -99 6 -225q1 -14 -18 -15q-177 -5 -325 0q-19 1 -18 15q9 225 0 451q-1 14 18 15zM109 677q58 2 52 3q-3 0 44 -2q17 -1 16 -12q-1 -6 -2 -3v3q1 -1 1 -15q1 -47 3 -68q1 -11 -16 -12q-46 -1 -49 -3h1
q-3 0 -48 2q-16 0 -16.5 11.5t-0.5 26.5q0 18 2 42q1 13 0 13q1 -1 -1 -4q-1 -2 -2 6q-4 11 16 12zM291 676q58 2 52 3q-3 0 44 -2q17 -1 16 -12q-1 -6 -2 -3v3q1 -1 1 -15q1 -47 3 -68q1 -11 -16 -12q-46 -1 -49 -3h1q-3 0 -48 2q-16 0 -16.5 11.5t-0.5 26.5q0 18 2 42
q1 13 0 13q1 -1 -1 -4q-1 -2 -2 6q-4 11 16 12z" />
    <glyph glyph-name="eth" unicode="&#xf0;" horiz-adv-x="695" 
d="M146 3q-64 0 -66 14q-15 99 -17 212q-1 112 21 213q0 13 17 11q235 -28 431 -42q0 28 -1.5 85t-1.5 85q-2 13 13 18q21 3 42 3t42 -3q12 -5 12 -18q-3 -115 -3 -279q0 -124 3 -277q0 -21 -29 -21q-9 -4 -82 -5t-157 0t-154 3zM429 315q-7 -56 -7 -110q0 -49 6 -96
q17 0 51 1h52q0 32 1 96.5t1 96.5q-54 7 -104 12z" />
    <glyph glyph-name="ntilde" unicode="&#xf1;" horiz-adv-x="679" 
d="M279 5q-20 1 -18 12q4 72 6 147q1 75 -2 151l-98 -12q-2 -141 4 -284q1 -13 -13 -13q-22 -4 -43 -4t-43 4q-11 0 -11 13q3 118 3 214q-1 87 -3 214q0 14 12 14q21 2 42 2t42 -2q14 0 14 -14q-2 -18 -2 -36q204 15 430 42q12 1 17 -11q15 -71 15 -151q0 -30 -2 -62
q-8 -115 -8 -212q0 -11 -18 -12q-161 -6 -324 0z" />
    <glyph glyph-name="ograve" unicode="&#xf2;" horiz-adv-x="685" 
d="M571 464q4 3 9 3q10 0 22 -9q19 -15 16 -23q12 -105 11 -209q-1 -112 -11 -209q-1 -15 -41 -15l-495 -1q-9 0 -20 5t-10 13q3 107 3 214q-1 107 -3 214q-1 8 10 12.5t20 4.5q247 -10 489 0zM159 355q-1 -61 -1 -123q0 -61 1 -123q54 -2 110 -2q6 57 6 117q0 65 -7 133
q-54 -2 -109 -2zM248 777q9 5 18 -4q26 -25 27 -28l-1 -1q3 -3 29 -27q14 -12 90 -78q12 -10 3 -19q-20 -27 -54 -58q-10 -9 -20 1q-13 14 -85 82l-29 27v0v0v0q-4 3 -30 25q-11 10 -4 20q22 35 56 60z" />
    <glyph glyph-name="oacute" unicode="&#xf3;" horiz-adv-x="685" 
d="M571 464q4 3 9 3q10 0 22 -9q19 -15 16 -23q12 -105 11 -209q-1 -112 -11 -209q-1 -15 -41 -15l-495 -1q-9 0 -20 5t-10 13q3 107 3 214q-1 107 -3 214q-1 8 10 12.5t20 4.5q247 -10 489 0zM159 355q-1 -61 -1 -123q0 -61 1 -123q54 -2 110 -2q6 57 6 117q0 65 -7 133
q-54 -2 -109 -2zM407 759q-10 5 -18 -4q-26 -25 -27 -28v-1q-2 -3 -29 -28q-14 -12 -89 -77q-12 -11 -3 -19q19 -28 54 -58q9 -9 21 2.5t84 79.5l28 27v0v0v0q5 3 31 26q10 9 4 19q-22 36 -56 61z" />
    <glyph glyph-name="ocircumflex" unicode="&#xf4;" horiz-adv-x="685" 
d="M571 464q4 3 9 3q10 0 22 -9q19 -15 16 -23q12 -105 11 -209q-1 -112 -11 -209q-1 -15 -41 -15l-495 -1q-9 0 -20 5t-10 13q3 107 3 214q-1 107 -3 214q-1 8 10 12.5t20 4.5q247 -10 489 0zM159 355q-1 -61 -1 -123q0 -61 1 -123q54 -2 110 -2q6 57 6 117q0 65 -7 133
q-54 -2 -109 -2zM272 636q-21 -37 -24 -46q-4 -14 -25 -53q-7 -14 -20 -2q-34 31 -54 59q-9 8 4.5 19t88.5 77q28 26 29 28h-1q2 4 27 29q9 8 18 3q33 -23 54 -57l14 -13q15 -12 90 -77q12 -11 3 -19q-20 -28 -54 -58q-13 -13 -18.5 1t-50.5 99q-8 13 -28 21q-9 4 -19 7
l-12 -2q-14 -3 -22 -16z" />
    <glyph glyph-name="otilde" unicode="&#xf5;" horiz-adv-x="685" 
d="M571 464q4 3 9 3q10 0 22 -9q19 -15 16 -23q12 -105 11 -209q-1 -112 -11 -209q-1 -15 -41 -15l-495 -1q-9 0 -20 5t-10 13q3 107 3 214q-1 107 -3 214q-1 8 10 12.5t20 4.5q247 -10 489 0zM159 355q-1 -61 -1 -123q0 -61 1 -123q54 -2 110 -2q6 57 6 117q0 65 -7 133
q-54 -2 -109 -2z" />
    <glyph glyph-name="odieresis" unicode="&#xf6;" horiz-adv-x="685" 
d="M571 464q4 3 9 3q10 0 22 -9q19 -15 16 -23q12 -105 11 -209q-1 -112 -11 -209q-1 -15 -41 -15l-495 -1q-9 0 -20 5t-10 13q3 107 3 214q-1 107 -3 214q-1 8 10 12.5t20 4.5q247 -10 489 0zM159 355q-1 -61 -1 -123q0 -61 1 -123q54 -2 110 -2q6 57 6 117q0 65 -7 133
q-54 -2 -109 -2zM213 704q58 2 52 3q-3 0 44 -2q17 -1 16 -12q-1 -6 -2 -3v3q1 -1 1 -15q1 -47 3 -68q1 -11 -16 -12q-46 -1 -49 -3h1q-3 0 -48 2q-16 0 -16.5 11.5t-0.5 26.5q0 18 2 42q1 13 0 13q1 -1 -1 -4q-1 -2 -2 6q-4 11 16 12zM395 703q58 2 52 3q-3 0 44 -2
q17 -1 16 -12q-1 -6 -2 -3v3q1 -1 1 -15q1 -47 3 -68q1 -11 -16 -12q-46 -1 -49 -3h1q-3 0 -48 2q-16 0 -16.5 11.5t-0.5 26.5q0 18 2 42q1 13 0 13q1 -1 -1 -4q-1 -2 -2 6q-4 11 16 12z" />
    <glyph glyph-name="divide" unicode="&#xf7;" horiz-adv-x="580" 
d="M433 41q-10 -5 -19 4q-58 59 -133 131q-67 -73 -123 -137q-11 -12 -19 -3q-28 19 -59 53q-9 10 2 21q56 57 128 134q-78 74 -145 136q-12 10 -3 19q20 27 55 57q10 9 20 -2q59 -59 140 -138q75 81 133 148q10 11 20 5q35 -23 60 -56q5 -10 -4 -19q-61 -63 -139 -146
q75 -71 139 -128q10 -10 4 -20q-23 -35 -57 -59z" />
    <glyph glyph-name="oslash" unicode="&#xf8;" horiz-adv-x="685" 
d="M158 213q50 74 96 144q-47 -2 -95 -2q-2 -67 -1 -142zM275 202l-63 -94h2q28 -1 55 -1q5 47 6 95zM505 561q8 -9 -6 -29l-49 -72q60 2 121 4q4 3 9 3q10 0 22 -9q19 -15 16 -23q12 -105 11 -209q-1 -112 -11 -209q-1 -15 -41 -15l-435 -1l-49 -74q-13 -21 -25 -16
q-38 15 -69 46q-8 14 4 31l50 73q2 86 2 172q-1 107 -3 214q-1 8 10 12.5t20 4.5q121 -5 240 -5q40 62 86 134q13 20 25 16q42 -14 72 -48z" />
    <glyph glyph-name="ugrave" unicode="&#xf9;" horiz-adv-x="696" 
d="M417 459q18 -1 18 -12q-6 -89 -6 -148q-1 -75 2 -150l98 12q0 139 -4 284q-1 13 12 13q21 3 43 3q21 0 44 -3q11 0 11 -13q-6 -214 0 -428q0 -14 -13 -14q-22 -2 -43 -2q-20 0 -40 2q-15 0 -14 14q0 26 1 36q-227 -18 -429 -42q-15 -2 -17 11q-22 93 -14 212q8 115 8 213
q0 11 18 12q103 3 162 4q66 0 163 -4zM278 758q9 5 18 -4q26 -25 27 -28l-1 -1q3 -3 29 -27q14 -12 90 -78q12 -10 3 -19q-20 -27 -54 -58q-10 -9 -20 1q-13 14 -85 82l-29 27v0v0v0q-4 3 -30 25q-11 10 -4 20q22 35 56 60z" />
    <glyph glyph-name="uacute" unicode="&#xfa;" horiz-adv-x="696" 
d="M417 459q18 -1 18 -12q-6 -89 -6 -148q-1 -75 2 -150l98 12q0 139 -4 284q-1 13 12 13q21 3 43 3q21 0 44 -3q11 0 11 -13q-6 -214 0 -428q0 -14 -13 -14q-22 -2 -43 -2q-20 0 -40 2q-15 0 -14 14q0 26 1 36q-227 -18 -429 -42q-15 -2 -17 11q-22 93 -14 212q8 115 8 213
q0 11 18 12q103 3 162 4q66 0 163 -4zM443 757q-10 5 -18 -4q-26 -25 -27 -28v-1q-2 -3 -29 -28q-14 -12 -89 -77q-12 -11 -3 -19q19 -28 54 -58q9 -9 21 2.5t84 79.5l28 27v0v0v0q5 3 31 26q10 9 4 19q-22 36 -56 61z" />
    <glyph glyph-name="ucircumflex" unicode="&#xfb;" horiz-adv-x="696" 
d="M417 459q18 -1 18 -12q-6 -89 -6 -148q-1 -75 2 -150l98 12q0 139 -4 284q-1 13 12 13q21 3 43 3q21 0 44 -3q11 0 11 -13q-6 -214 0 -428q0 -14 -13 -14q-22 -2 -43 -2q-20 0 -40 2q-15 0 -14 14q0 26 1 36q-227 -18 -429 -42q-15 -2 -17 11q-22 93 -14 212q8 115 8 213
q0 11 18 12q103 3 162 4q66 0 163 -4zM309 645q-21 -37 -24 -46q-4 -14 -25 -53q-7 -14 -20 -2q-34 31 -54 59q-9 8 4.5 19t88.5 77q28 26 29 28h-1q2 4 27 29q9 8 18 3q33 -23 54 -57l14 -13q15 -12 90 -77q12 -11 3 -19q-20 -28 -54 -58q-13 -13 -18.5 1t-50.5 99
q-8 13 -28 21q-9 4 -19 7l-12 -2q-14 -3 -22 -16z" />
    <glyph glyph-name="udieresis" unicode="&#xfc;" horiz-adv-x="696" 
d="M417 459q18 -1 18 -12q-6 -89 -6 -148q-1 -75 2 -150l98 12q0 139 -4 284q-1 13 12 13q21 3 43 3q21 0 44 -3q11 0 11 -13q-6 -214 0 -428q0 -14 -13 -14q-22 -2 -43 -2q-20 0 -40 2q-15 0 -14 14q0 26 1 36q-227 -18 -429 -42q-15 -2 -17 11q-22 93 -14 212q8 115 8 213
q0 11 18 12q103 3 162 4q66 0 163 -4zM239 701q58 2 52 3q-3 0 44 -2q17 -1 16 -12q-1 -6 -2 -3v3q1 -1 1 -15q1 -47 3 -68q1 -11 -16 -12q-46 -1 -49 -3h1q-3 0 -48 2q-16 0 -16.5 11.5t-0.5 26.5q0 18 2 42q1 13 0 13q1 -1 -1 -4q-1 -2 -2 6q-4 11 16 12zM421 700
q58 2 52 3q-3 0 44 -2q17 -1 16 -12q-1 -6 -2 -3v3q1 -1 1 -15q1 -47 3 -68q1 -11 -16 -12q-46 -1 -49 -3h1q-3 0 -48 2q-16 0 -16.5 11.5t-0.5 26.5q0 18 2 42q1 13 0 13q1 -1 -1 -4q-1 -2 -2 6q-4 11 16 12z" />
    <glyph glyph-name="yacute" unicode="&#xfd;" horiz-adv-x="694" 
d="M422 456q19 -1 18 -12q-18 -93 -18 -185q0 -57 7 -113q53 4 103 12q0 139 -4 279q-2 13 12 18q21 3 43 3t43 -3q11 -5 11 -18q-3 -115 -3 -279q0 -121 3 -277q0 -16 -21 -19q-4 -1 -34 -1q-105 0 -208 1q-93 1 -207 -2q-14 0 -14 13q-3 21 -3 42t3 42q0 14 14 13
q190 -7 363 -3q0 14 1 42v41q-228 -18 -430 -42q-14 -2 -17 11q-22 97 -21 212q1 106 16 213q2 11 18 12q102 3 163 4q65 0 162 -4zM442 750q-10 5 -18 -4q-26 -25 -27 -28v-1q-2 -3 -29 -28q-14 -12 -89 -77q-12 -11 -3 -19q19 -28 54 -58q9 -9 21 2.5t84 79.5l28 27v0v0v0
q5 3 31 26q10 9 4 19q-22 36 -56 61z" />
    <glyph glyph-name="ydieresis" unicode="&#xff;" horiz-adv-x="694" 
d="M422 456q19 -1 18 -12q-18 -93 -18 -185q0 -57 7 -113q53 4 103 12q0 139 -4 279q-2 13 12 18q21 3 43 3t43 -3q11 -5 11 -18q-3 -115 -3 -279q0 -121 3 -277q0 -16 -21 -19q-4 -1 -34 -1q-105 0 -208 1q-93 1 -207 -2q-14 0 -14 13q-3 21 -3 42t3 42q0 14 14 13
q190 -7 363 -3q0 14 1 42v41q-228 -18 -430 -42q-14 -2 -17 11q-22 97 -21 212q1 106 16 213q2 11 18 12q102 3 163 4q65 0 162 -4z" />
    <glyph glyph-name="Scaron" unicode="&#x160;" horiz-adv-x="715" 
d="M84 487q0 12 16 11q258 -9 513 0q12 0 17 -12q2 -20 2 -40t-2 -40q-4 -12 -17 -12q-46 0 -92 1l-91 2q-6 -51 -9 -102q121 3 218 -3q16 -1 16 -13q0 -157 -14 -266q-4 -12 -17 -12q-157 2 -263 3q-141 0 -262 -3q-15 0 -17 11q-8 38 0 81q4 12 17 12l96 -3q47 -1 95 -1
q4 48 6 96q-34 0 -102.5 -1t-102.5 -1q-14 -2 -17 10q-13 62 -8 140q5 76 18 142zM341 695q-21 37 -24 46q-4 13 -25 53q-7 14 -20 1q-34 -30 -54 -58q-9 -8 4.5 -19t88.5 -77q28 -26 29 -28h-1q2 -5 27 -29q9 -9 18 -3q33 23 54 57l14 13q15 12 90 77q12 10 3 19
q-20 27 -54 58q-13 12 -18.5 -1.5t-50.5 -98.5q-8 -14 -28 -21q-9 -4 -19 -7l-12 2q-14 3 -22 16z" />
    <glyph glyph-name="scaron" unicode="&#x161;" horiz-adv-x="715" 
d="M84 487q0 12 16 11q258 -9 513 0q12 0 17 -12q2 -20 2 -40t-2 -40q-4 -12 -17 -12q-46 0 -92 1l-91 2q-6 -51 -9 -102q121 3 218 -3q16 -1 16 -13q0 -157 -14 -266q-4 -12 -17 -12q-157 2 -263 3q-141 0 -262 -3q-15 0 -17 11q-8 38 0 81q4 12 17 12l96 -3q47 -1 95 -1
q4 48 6 96q-34 0 -102.5 -1t-102.5 -1q-14 -2 -17 10q-13 62 -8 140q5 76 18 142zM341 695q-21 37 -24 46q-4 13 -25 53q-7 14 -20 1q-34 -30 -54 -58q-9 -8 4.5 -19t88.5 -77q28 -26 29 -28h-1q2 -5 27 -29q9 -9 18 -3q33 23 54 57l14 13q15 12 90 77q12 10 3 19
q-20 27 -54 58q-13 12 -18.5 -1.5t-50.5 -98.5q-8 -14 -28 -21q-9 -4 -19 -7l-12 2q-14 3 -22 16z" />
    <glyph glyph-name="Ydieresis" unicode="&#x178;" horiz-adv-x="694" 
d="M422 456q19 -1 18 -12q-18 -93 -18 -185q0 -57 7 -113q53 4 103 12q0 139 -4 279q-2 13 12 18q21 3 43 3t43 -3q11 -5 11 -18q-3 -115 -3 -279q0 -121 3 -277q0 -16 -21 -19q-4 -1 -34 -1q-105 0 -208 1q-93 1 -207 -2q-14 0 -14 13q-3 21 -3 42t3 42q0 14 14 13
q190 -7 363 -3q0 14 1 42v41q-228 -18 -430 -42q-14 -2 -17 11q-22 97 -21 212q1 106 16 213q2 11 18 12q102 3 163 4q65 0 162 -4zM239 701q58 2 52 3q-3 0 44 -2q17 -1 16 -12q-1 -6 -2 -3v3q1 -1 1 -15q1 -47 3 -68q1 -11 -16 -12q-46 -1 -49 -3h1q-3 0 -48 2
q-16 0 -16.5 11.5t-0.5 26.5q0 18 2 42q1 13 0 13q1 -1 -1 -4q-1 -2 -2 6q-4 11 16 12zM421 700q58 2 52 3q-3 0 44 -2q17 -1 16 -12q-1 -6 -2 -3v3q1 -1 1 -15q1 -47 3 -68q1 -11 -16 -12q-46 -1 -49 -3h1q-3 0 -48 2q-16 0 -16.5 11.5t-0.5 26.5q0 18 2 42q1 13 0 13
q1 -1 -1 -4q-1 -2 -2 6q-4 11 16 12z" />
    <glyph glyph-name="zdot" unicode="&#x17c;" horiz-adv-x="682" 
d="M632 456q15 -1 11 -14q-73 -162 -180 -334q45 0 119 3q15 1 15 -14q2 -21 2 -42t-2 -41q0 -13 -15 -13q-139 3 -264 0q-139 -4 -265 0q-20 1 -10 14q143 194 210 341q-27 0 -80.5 -1t-80.5 -1q-14 0 -16 11q-9 42 0 86q3 14 16 13q80 -3 270 -3q173 1 270 -5zM341 695
q-21 37 -24 46q-4 13 -25 53q-7 14 -20 1q-34 -30 -54 -58q-9 -8 4.5 -19t88.5 -77q28 -26 29 -28h-1q2 -5 27 -29q9 -9 18 -3q33 23 54 57l14 13q15 12 90 77q12 10 3 19q-20 27 -54 58q-13 12 -18.5 -1.5t-50.5 -98.5q-8 -14 -28 -21q-9 -4 -19 -7l-12 2q-14 3 -22 16z
" />
    <glyph glyph-name="Zcaron" unicode="&#x17d;" horiz-adv-x="682" 
d="M632 456q15 -1 11 -14q-73 -162 -180 -334q45 0 119 3q15 1 15 -14q2 -21 2 -42t-2 -41q0 -13 -15 -13q-139 3 -264 0q-139 -4 -265 0q-20 1 -10 14q143 194 210 341q-27 0 -80.5 -1t-80.5 -1q-14 0 -16 11q-9 42 0 86q3 14 16 13q80 -3 270 -3q173 1 270 -5zM341 695
q-21 37 -24 46q-4 13 -25 53q-7 14 -20 1q-34 -30 -54 -58q-9 -8 4.5 -19t88.5 -77q28 -26 29 -28h-1q2 -5 27 -29q9 -9 18 -3q33 23 54 57l14 13q15 12 90 77q12 10 3 19q-20 27 -54 58q-13 12 -18.5 -1.5t-50.5 -98.5q-8 -14 -28 -21q-9 -4 -19 -7l-12 2q-14 3 -22 16z
" />
    <glyph glyph-name="quoteleft" unicode="&#x2018;" horiz-adv-x="442" 
d="M373 454q-150 -9 -300 0q-20 1 -17 13q-4 54 -4 83q1 50 34 118q24 49 49 105q6 15 19 11q37 -12 76 -35l4 -8q3 -8 0 -14q-18 -35 -52 -105q80 0 191 -3q15 0 17 -12q2 -26 -2 -69q-2 -18 -2 -33q0 -22 4 -38q1 -12 -17 -13z" />
    <glyph glyph-name="quoteright" unicode="&#x2019;" horiz-adv-x="404" 
d="M58 781q140 7 300 0q18 -3 17 -13q3 -54 2 -83q-2 -51 -34 -119q-18 -38 -47 -104q-7 -16 -19 -11q-39 11 -76 35q-14 4 -5 22q18 35 52 105h-95q-33 0 -95 3q-15 1 -17 12q-3 23 1 69q3 44 -1 71q-2 12 17 13z" />
    <glyph glyph-name="quotedblleft" unicode="&#x201c;" horiz-adv-x="857" 
d="M373 454q-150 -9 -300 0q-20 1 -17 13q-4 54 -4 83q1 50 34 118q24 49 49 105q6 15 19 11q37 -12 76 -35l4 -8q3 -8 0 -14q-18 -35 -52 -105q80 0 191 -3q15 0 17 -12q2 -26 -2 -69q-2 -18 -2 -33q0 -22 4 -38q1 -12 -17 -13zM788 454q-150 -9 -300 0q-20 1 -17 13
q-3 54 -3 83q1 49 34 118q26 55 48 105q6 15 19 11q37 -12 76 -35l4 -8q3 -8 0 -14q-18 -35 -51 -105q80 0 190 -3q15 0 17 -12q2 -26 -2 -69q-1 -18 -1 -34q0 -21 3 -37q1 -12 -17 -13z" />
    <glyph glyph-name="quotedblright" unicode="&#x201d;" horiz-adv-x="819" 
d="M473 781q75 3 150 3t150 -3q18 -3 17 -13q3 -54 2 -83q-2 -51 -34 -119q-18 -38 -47 -104q-7 -16 -19 -11q-39 11 -76 35q-8 4 -8 11q0 5 3 11l26 52q13 26 26 53h-95q-33 0 -95 3q-15 1 -17 12q-3 23 1 69q3 45 -1 71q-2 10 17 13zM58 781q140 7 300 0q18 -3 17 -13
q3 -54 2 -83q-2 -51 -34 -119q-18 -38 -47 -104q-7 -16 -19 -11q-39 11 -76 35q-14 4 -5 22q18 35 52 105h-95q-33 0 -95 3q-15 1 -17 12q-3 23 1 69q3 44 -1 71q-2 12 17 13z" />
    <glyph glyph-name="ellipsis" unicode="&#x2026;" horiz-adv-x="1289" 
d="M95 169q93 4 150 4q54 -1 151 -4q17 -1 16 -12q-4 -23 -3 -72q1 -47 3 -68q1 -11 -16 -12q-152 -5 -301 0q-16 0 -16.5 11.5t-0.5 26.5q0 14 2 40t2 40q0 19 -3 34q-3 11 16 12zM498 169q92 4 150 4q54 -1 151 -4q17 -1 16 -12q-4 -23 -3 -72q1 -47 3 -68q1 -11 -16 -12
q-152 -5 -301 0q-16 0 -16.5 11.5t-0.5 26.5q0 14 1.5 40t1.5 40q0 19 -2 34q-4 11 16 12zM901 169q92 4 150 4q53 -1 151 -4q17 -1 16 -12q-4 -23 -3 -72q1 -47 3 -68q1 -11 -16 -12q-153 -5 -301 0q-16 0 -17 11.5t-1 26.5q0 14 2 40t2 40q0 19 -2 34q-4 11 16 12z" />
    <glyph glyph-name="glyph161" horiz-adv-x="339" 
 />
  </font>
</defs>
</svg>
